<?xml version="1.0" encoding="UTF-8"?>
<svg width="518px" height="518px" viewBox="0 0 518 518" version="1.1" xmlns="http://www.w3.org/2000/svg" xmlns:xlink="http://www.w3.org/1999/xlink">
    <!-- Generator: Sketch 59.1 (86144) - https://sketch.com -->
    <title>oval</title>
    <desc>Created with Sketch.</desc>
    <g id="Master" stroke="none" stroke-width="1" fill="none" fill-rule="evenodd" opacity="0.4" stroke-dasharray="4,8">
        <g id="oval" transform="translate(-76.000000, -76.000000)" stroke="#5FEED8" stroke-width="2">
            <path d="M335,592.010582 C476.943025,592.010582 592.010582,476.943025 592.010582,335 C592.010582,193.056975 476.943025,77.989418 335,77.989418 C193.056975,77.989418 77.989418,193.056975 77.989418,335 C77.989418,476.943025 193.056975,592.010582 335,592.010582 Z" id="Oval_5" opacity="0.80916135" transform="translate(335.000000, 335.000000) rotate(288.000000) translate(-335.000000, -335.000000) "></path>
            <path d="M335,574.285714 C467.153851,574.285714 574.285714,467.153851 574.285714,335 C574.285714,202.846149 467.153851,95.7142857 335,95.7142857 C202.846149,95.7142857 95.7142857,202.846149 95.7142857,335 C95.7142857,467.153851 202.846149,574.285714 335,574.285714 Z" id="Oval_4" opacity="0.419975519" transform="translate(335.000000, 335.000000) rotate(216.000000) translate(-335.000000, -335.000000) "></path>
            <path d="M335,556.560847 C457.364677,556.560847 556.560847,457.364677 556.560847,335 C556.560847,212.635323 457.364677,113.439153 335,113.439153 C212.635323,113.439153 113.439153,212.635323 113.439153,335 C113.439153,457.364677 212.635323,556.560847 335,556.560847 Z" id="Oval_3" opacity="0.437013511" transform="translate(335.000000, 335.000000) rotate(144.000000) translate(-335.000000, -335.000000) "></path>
            <path d="M335,538.835979 C447.575503,538.835979 538.835979,447.575503 538.835979,335 C538.835979,222.424497 447.575503,131.164021 335,131.164021 C222.424497,131.164021 131.164021,222.424497 131.164021,335 C131.164021,447.575503 222.424497,538.835979 335,538.835979 Z" id="Oval_2" opacity="0.894791841" transform="translate(335.000000, 335.000000) rotate(72.000000) translate(-335.000000, -335.000000) "></path>
            <path d="M335,521 C437.724963,521 521,437.724963 521,335 C521,232.275037 437.724963,149 335,149 C232.275037,149 149,232.275037 149,335 C149,437.724963 232.275037,521 335,521 Z" id="Oval_1" opacity="0.278228259"></path>
        </g>
    </g>
</svg>