<?xml version="1.0" encoding="UTF-8"?>
<svg width="80px" height="80px" viewBox="0 0 80 80" version="1.1" xmlns="http://www.w3.org/2000/svg" xmlns:xlink="http://www.w3.org/1999/xlink">
    <!-- Generator: Sketch 59.1 (86144) - https://sketch.com -->
    <title>pattern_light</title>
    <desc>Created with Sketch.</desc>
    <g id="pattern_light" stroke="none" stroke-width="1" fill="none" fill-rule="evenodd" opacity="0.35">
        <g id="Group" transform="translate(2.500000, 2.500000)" fill="#EEEEEE">
            <circle id="Oval-Copy-99" cx="73.5" cy="73.5" r="1.5"></circle>
            <circle id="Oval-Copy-98" cx="65.5" cy="73.5" r="1.5"></circle>
            <circle id="Oval-Copy-97" cx="57.5" cy="73.5" r="1.5"></circle>
            <circle id="Oval-Copy-96" cx="49.5" cy="73.5" r="1.5"></circle>
            <circle id="Oval-Copy-95" cx="41.5" cy="73.5" r="1.5"></circle>
            <circle id="Oval-Copy-94" cx="33.5" cy="73.5" r="1.5"></circle>
            <circle id="Oval-Copy-93" cx="25.5" cy="73.5" r="1.5"></circle>
            <circle id="Oval-Copy-92" cx="17.5" cy="73.5" r="1.5"></circle>
            <circle id="Oval-Copy-91" cx="9.5" cy="73.5" r="1.5"></circle>
            <circle id="Oval-Copy-90" cx="1.5" cy="73.5" r="1.5"></circle>
            <circle id="Oval-Copy-89" cx="73.5" cy="65.5" r="1.5"></circle>
            <circle id="Oval-Copy-88" cx="65.5" cy="65.5" r="1.5"></circle>
            <circle id="Oval-Copy-87" cx="57.5" cy="65.5" r="1.5"></circle>
            <circle id="Oval-Copy-86" cx="49.5" cy="65.5" r="1.5"></circle>
            <circle id="Oval-Copy-85" cx="41.5" cy="65.5" r="1.5"></circle>
            <circle id="Oval-Copy-84" cx="33.5" cy="65.5" r="1.5"></circle>
            <circle id="Oval-Copy-83" cx="25.5" cy="65.5" r="1.5"></circle>
            <circle id="Oval-Copy-82" cx="17.5" cy="65.5" r="1.5"></circle>
            <circle id="Oval-Copy-81" cx="9.5" cy="65.5" r="1.5"></circle>
            <circle id="Oval-Copy-80" cx="1.5" cy="65.5" r="1.5"></circle>
            <circle id="Oval-Copy-79" cx="73.5" cy="57.5" r="1.5"></circle>
            <circle id="Oval-Copy-78" cx="65.5" cy="57.5" r="1.5"></circle>
            <circle id="Oval-Copy-77" cx="57.5" cy="57.5" r="1.5"></circle>
            <circle id="Oval-Copy-76" cx="49.5" cy="57.5" r="1.5"></circle>
            <circle id="Oval-Copy-75" cx="41.5" cy="57.5" r="1.5"></circle>
            <circle id="Oval-Copy-74" cx="33.5" cy="57.5" r="1.5"></circle>
            <circle id="Oval-Copy-73" cx="25.5" cy="57.5" r="1.5"></circle>
            <circle id="Oval-Copy-72" cx="17.5" cy="57.5" r="1.5"></circle>
            <circle id="Oval-Copy-71" cx="9.5" cy="57.5" r="1.5"></circle>
            <circle id="Oval-Copy-70" cx="1.5" cy="57.5" r="1.5"></circle>
            <circle id="Oval-Copy-69" cx="73.5" cy="49.5" r="1.5"></circle>
            <circle id="Oval-Copy-68" cx="65.5" cy="49.5" r="1.5"></circle>
            <circle id="Oval-Copy-67" cx="57.5" cy="49.5" r="1.5"></circle>
            <circle id="Oval-Copy-66" cx="49.5" cy="49.5" r="1.5"></circle>
            <circle id="Oval-Copy-65" cx="41.5" cy="49.5" r="1.5"></circle>
            <circle id="Oval-Copy-64" cx="33.5" cy="49.5" r="1.5"></circle>
            <circle id="Oval-Copy-63" cx="25.5" cy="49.5" r="1.5"></circle>
            <circle id="Oval-Copy-62" cx="17.5" cy="49.5" r="1.5"></circle>
            <circle id="Oval-Copy-61" cx="9.5" cy="49.5" r="1.5"></circle>
            <circle id="Oval-Copy-60" cx="1.5" cy="49.5" r="1.5"></circle>
            <circle id="Oval-Copy-59" cx="73.5" cy="41.5" r="1.5"></circle>
            <circle id="Oval-Copy-58" cx="65.5" cy="41.5" r="1.5"></circle>
            <circle id="Oval-Copy-57" cx="57.5" cy="41.5" r="1.5"></circle>
            <circle id="Oval-Copy-56" cx="49.5" cy="41.5" r="1.5"></circle>
            <circle id="Oval-Copy-55" cx="41.5" cy="41.5" r="1.5"></circle>
            <circle id="Oval-Copy-54" cx="33.5" cy="41.5" r="1.5"></circle>
            <circle id="Oval-Copy-53" cx="25.5" cy="41.5" r="1.5"></circle>
            <circle id="Oval-Copy-52" cx="17.5" cy="41.5" r="1.5"></circle>
            <circle id="Oval-Copy-51" cx="9.5" cy="41.5" r="1.5"></circle>
            <circle id="Oval-Copy-50" cx="1.5" cy="41.5" r="1.5"></circle>
            <circle id="Oval-Copy-49" cx="73.5" cy="33.5" r="1.5"></circle>
            <circle id="Oval-Copy-48" cx="65.5" cy="33.5" r="1.5"></circle>
            <circle id="Oval-Copy-47" cx="57.5" cy="33.5" r="1.5"></circle>
            <circle id="Oval-Copy-46" cx="49.5" cy="33.5" r="1.5"></circle>
            <circle id="Oval-Copy-45" cx="41.5" cy="33.5" r="1.5"></circle>
            <circle id="Oval-Copy-44" cx="33.5" cy="33.5" r="1.5"></circle>
            <circle id="Oval-Copy-43" cx="25.5" cy="33.5" r="1.5"></circle>
            <circle id="Oval-Copy-42" cx="17.5" cy="33.5" r="1.5"></circle>
            <circle id="Oval-Copy-41" cx="9.5" cy="33.5" r="1.5"></circle>
            <circle id="Oval-Copy-40" cx="1.5" cy="33.5" r="1.5"></circle>
            <circle id="Oval-Copy-39" cx="73.5" cy="25.5" r="1.5"></circle>
            <circle id="Oval-Copy-38" cx="65.5" cy="25.5" r="1.5"></circle>
            <circle id="Oval-Copy-37" cx="57.5" cy="25.5" r="1.5"></circle>
            <circle id="Oval-Copy-36" cx="49.5" cy="25.5" r="1.5"></circle>
            <circle id="Oval-Copy-35" cx="41.5" cy="25.5" r="1.5"></circle>
            <circle id="Oval-Copy-34" cx="33.5" cy="25.5" r="1.5"></circle>
            <circle id="Oval-Copy-33" cx="25.5" cy="25.5" r="1.5"></circle>
            <circle id="Oval-Copy-32" cx="17.5" cy="25.5" r="1.5"></circle>
            <circle id="Oval-Copy-31" cx="9.5" cy="25.5" r="1.5"></circle>
            <circle id="Oval-Copy-30" cx="1.5" cy="25.5" r="1.5"></circle>
            <circle id="Oval-Copy-29" cx="73.5" cy="17.5" r="1.5"></circle>
            <circle id="Oval-Copy-28" cx="65.5" cy="17.5" r="1.5"></circle>
            <circle id="Oval-Copy-27" cx="57.5" cy="17.5" r="1.5"></circle>
            <circle id="Oval-Copy-26" cx="49.5" cy="17.5" r="1.5"></circle>
            <circle id="Oval-Copy-25" cx="41.5" cy="17.5" r="1.5"></circle>
            <circle id="Oval-Copy-24" cx="33.5" cy="17.5" r="1.5"></circle>
            <circle id="Oval-Copy-23" cx="25.5" cy="17.5" r="1.5"></circle>
            <circle id="Oval-Copy-22" cx="17.5" cy="17.5" r="1.5"></circle>
            <circle id="Oval-Copy-21" cx="9.5" cy="17.5" r="1.5"></circle>
            <circle id="Oval-Copy-20" cx="1.5" cy="17.5" r="1.5"></circle>
            <circle id="Oval-Copy-19" cx="73.5" cy="9.5" r="1.5"></circle>
            <circle id="Oval-Copy-18" cx="65.5" cy="9.5" r="1.5"></circle>
            <circle id="Oval-Copy-17" cx="57.5" cy="9.5" r="1.5"></circle>
            <circle id="Oval-Copy-16" cx="49.5" cy="9.5" r="1.5"></circle>
            <circle id="Oval-Copy-15" cx="41.5" cy="9.5" r="1.5"></circle>
            <circle id="Oval-Copy-14" cx="33.5" cy="9.5" r="1.5"></circle>
            <circle id="Oval-Copy-13" cx="25.5" cy="9.5" r="1.5"></circle>
            <circle id="Oval-Copy-12" cx="17.5" cy="9.5" r="1.5"></circle>
            <circle id="Oval-Copy-11" cx="9.5" cy="9.5" r="1.5"></circle>
            <circle id="Oval-Copy-10" cx="1.5" cy="9.5" r="1.5"></circle>
            <circle id="Oval-Copy-9" cx="73.5" cy="1.5" r="1.5"></circle>
            <circle id="Oval-Copy-8" cx="65.5" cy="1.5" r="1.5"></circle>
            <circle id="Oval-Copy-7" cx="57.5" cy="1.5" r="1.5"></circle>
            <circle id="Oval-Copy-6" cx="49.5" cy="1.5" r="1.5"></circle>
            <circle id="Oval-Copy-5" cx="41.5" cy="1.5" r="1.5"></circle>
            <circle id="Oval-Copy-4" cx="33.5" cy="1.5" r="1.5"></circle>
            <circle id="Oval-Copy-3" cx="25.5" cy="1.5" r="1.5"></circle>
            <circle id="Oval-Copy-2" cx="17.5" cy="1.5" r="1.5"></circle>
            <circle id="Oval-Copy" cx="9.5" cy="1.5" r="1.5"></circle>
            <circle id="Oval" cx="1.5" cy="1.5" r="1.5"></circle>
        </g>
    </g>
</svg>