<?xml version="1.0" encoding="UTF-8"?>
<svg width="160px" height="160px" viewBox="0 0 160 160" version="1.1" xmlns="http://www.w3.org/2000/svg" xmlns:xlink="http://www.w3.org/1999/xlink">
    <!-- Generator: Sketch 59.1 (86144) - https://sketch.com -->
    <title>Artboard</title>
    <desc>Created with Sketch.</desc>
    <g id="Artboard" stroke="none" stroke-width="1" fill="none" fill-rule="evenodd">
        <g id="Group" transform="translate(5.000000, 5.000000)" fill="#EEEEEE">
            <circle id="Oval-Copy-99" cx="147" cy="147" r="3"></circle>
            <circle id="Oval-Copy-98" cx="131" cy="147" r="3"></circle>
            <circle id="Oval-Copy-97" cx="115" cy="147" r="3"></circle>
            <circle id="Oval-Copy-96" cx="99" cy="147" r="3"></circle>
            <circle id="Oval-Copy-95" cx="83" cy="147" r="3"></circle>
            <circle id="Oval-Copy-94" cx="67" cy="147" r="3"></circle>
            <circle id="Oval-Copy-93" cx="51" cy="147" r="3"></circle>
            <circle id="Oval-Copy-92" cx="35" cy="147" r="3"></circle>
            <circle id="Oval-Copy-91" cx="19" cy="147" r="3"></circle>
            <circle id="Oval-Copy-90" cx="3" cy="147" r="3"></circle>
            <circle id="Oval-Copy-89" cx="147" cy="131" r="3"></circle>
            <circle id="Oval-Copy-88" cx="131" cy="131" r="3"></circle>
            <circle id="Oval-Copy-87" cx="115" cy="131" r="3"></circle>
            <circle id="Oval-Copy-86" cx="99" cy="131" r="3"></circle>
            <circle id="Oval-Copy-85" cx="83" cy="131" r="3"></circle>
            <circle id="Oval-Copy-84" cx="67" cy="131" r="3"></circle>
            <circle id="Oval-Copy-83" cx="51" cy="131" r="3"></circle>
            <circle id="Oval-Copy-82" cx="35" cy="131" r="3"></circle>
            <circle id="Oval-Copy-81" cx="19" cy="131" r="3"></circle>
            <circle id="Oval-Copy-80" cx="3" cy="131" r="3"></circle>
            <circle id="Oval-Copy-79" cx="147" cy="115" r="3"></circle>
            <circle id="Oval-Copy-78" cx="131" cy="115" r="3"></circle>
            <circle id="Oval-Copy-77" cx="115" cy="115" r="3"></circle>
            <circle id="Oval-Copy-76" cx="99" cy="115" r="3"></circle>
            <circle id="Oval-Copy-75" cx="83" cy="115" r="3"></circle>
            <circle id="Oval-Copy-74" cx="67" cy="115" r="3"></circle>
            <circle id="Oval-Copy-73" cx="51" cy="115" r="3"></circle>
            <circle id="Oval-Copy-72" cx="35" cy="115" r="3"></circle>
            <circle id="Oval-Copy-71" cx="19" cy="115" r="3"></circle>
            <circle id="Oval-Copy-70" cx="3" cy="115" r="3"></circle>
            <circle id="Oval-Copy-69" cx="147" cy="99" r="3"></circle>
            <circle id="Oval-Copy-68" cx="131" cy="99" r="3"></circle>
            <circle id="Oval-Copy-67" cx="115" cy="99" r="3"></circle>
            <circle id="Oval-Copy-66" cx="99" cy="99" r="3"></circle>
            <circle id="Oval-Copy-65" cx="83" cy="99" r="3"></circle>
            <circle id="Oval-Copy-64" cx="67" cy="99" r="3"></circle>
            <circle id="Oval-Copy-63" cx="51" cy="99" r="3"></circle>
            <circle id="Oval-Copy-62" cx="35" cy="99" r="3"></circle>
            <circle id="Oval-Copy-61" cx="19" cy="99" r="3"></circle>
            <circle id="Oval-Copy-60" cx="3" cy="99" r="3"></circle>
            <circle id="Oval-Copy-59" cx="147" cy="83" r="3"></circle>
            <circle id="Oval-Copy-58" cx="131" cy="83" r="3"></circle>
            <circle id="Oval-Copy-57" cx="115" cy="83" r="3"></circle>
            <circle id="Oval-Copy-56" cx="99" cy="83" r="3"></circle>
            <circle id="Oval-Copy-55" cx="83" cy="83" r="3"></circle>
            <circle id="Oval-Copy-54" cx="67" cy="83" r="3"></circle>
            <circle id="Oval-Copy-53" cx="51" cy="83" r="3"></circle>
            <circle id="Oval-Copy-52" cx="35" cy="83" r="3"></circle>
            <circle id="Oval-Copy-51" cx="19" cy="83" r="3"></circle>
            <circle id="Oval-Copy-50" cx="3" cy="83" r="3"></circle>
            <circle id="Oval-Copy-49" cx="147" cy="67" r="3"></circle>
            <circle id="Oval-Copy-48" cx="131" cy="67" r="3"></circle>
            <circle id="Oval-Copy-47" cx="115" cy="67" r="3"></circle>
            <circle id="Oval-Copy-46" cx="99" cy="67" r="3"></circle>
            <circle id="Oval-Copy-45" cx="83" cy="67" r="3"></circle>
            <circle id="Oval-Copy-44" cx="67" cy="67" r="3"></circle>
            <circle id="Oval-Copy-43" cx="51" cy="67" r="3"></circle>
            <circle id="Oval-Copy-42" cx="35" cy="67" r="3"></circle>
            <circle id="Oval-Copy-41" cx="19" cy="67" r="3"></circle>
            <circle id="Oval-Copy-40" cx="3" cy="67" r="3"></circle>
            <circle id="Oval-Copy-39" cx="147" cy="51" r="3"></circle>
            <circle id="Oval-Copy-38" cx="131" cy="51" r="3"></circle>
            <circle id="Oval-Copy-37" cx="115" cy="51" r="3"></circle>
            <circle id="Oval-Copy-36" cx="99" cy="51" r="3"></circle>
            <circle id="Oval-Copy-35" cx="83" cy="51" r="3"></circle>
            <circle id="Oval-Copy-34" cx="67" cy="51" r="3"></circle>
            <circle id="Oval-Copy-33" cx="51" cy="51" r="3"></circle>
            <circle id="Oval-Copy-32" cx="35" cy="51" r="3"></circle>
            <circle id="Oval-Copy-31" cx="19" cy="51" r="3"></circle>
            <circle id="Oval-Copy-30" cx="3" cy="51" r="3"></circle>
            <circle id="Oval-Copy-29" cx="147" cy="35" r="3"></circle>
            <circle id="Oval-Copy-28" cx="131" cy="35" r="3"></circle>
            <circle id="Oval-Copy-27" cx="115" cy="35" r="3"></circle>
            <circle id="Oval-Copy-26" cx="99" cy="35" r="3"></circle>
            <circle id="Oval-Copy-25" cx="83" cy="35" r="3"></circle>
            <circle id="Oval-Copy-24" cx="67" cy="35" r="3"></circle>
            <circle id="Oval-Copy-23" cx="51" cy="35" r="3"></circle>
            <circle id="Oval-Copy-22" cx="35" cy="35" r="3"></circle>
            <circle id="Oval-Copy-21" cx="19" cy="35" r="3"></circle>
            <circle id="Oval-Copy-20" cx="3" cy="35" r="3"></circle>
            <circle id="Oval-Copy-19" cx="147" cy="19" r="3"></circle>
            <circle id="Oval-Copy-18" cx="131" cy="19" r="3"></circle>
            <circle id="Oval-Copy-17" cx="115" cy="19" r="3"></circle>
            <circle id="Oval-Copy-16" cx="99" cy="19" r="3"></circle>
            <circle id="Oval-Copy-15" cx="83" cy="19" r="3"></circle>
            <circle id="Oval-Copy-14" cx="67" cy="19" r="3"></circle>
            <circle id="Oval-Copy-13" cx="51" cy="19" r="3"></circle>
            <circle id="Oval-Copy-12" cx="35" cy="19" r="3"></circle>
            <circle id="Oval-Copy-11" cx="19" cy="19" r="3"></circle>
            <circle id="Oval-Copy-10" cx="3" cy="19" r="3"></circle>
            <circle id="Oval-Copy-9" cx="147" cy="3" r="3"></circle>
            <circle id="Oval-Copy-8" cx="131" cy="3" r="3"></circle>
            <circle id="Oval-Copy-7" cx="115" cy="3" r="3"></circle>
            <circle id="Oval-Copy-6" cx="99" cy="3" r="3"></circle>
            <circle id="Oval-Copy-5" cx="83" cy="3" r="3"></circle>
            <circle id="Oval-Copy-4" cx="67" cy="3" r="3"></circle>
            <circle id="Oval-Copy-3" cx="51" cy="3" r="3"></circle>
            <circle id="Oval-Copy-2" cx="35" cy="3" r="3"></circle>
            <circle id="Oval-Copy" cx="19" cy="3" r="3"></circle>
            <circle id="Oval" cx="3" cy="3" r="3"></circle>
        </g>
    </g>
</svg>