<?xml version="1.0" encoding="UTF-8"?>
<svg width="300px" height="236px" viewBox="0 0 300 236" version="1.1" xmlns="http://www.w3.org/2000/svg" xmlns:xlink="http://www.w3.org/1999/xlink">
    <!-- Generator: Sketch 59.1 (86144) - https://sketch.com -->
    <title>confirm</title>
    <desc>Created with Sketch.</desc>
    <defs>
        <linearGradient x1="66.0212375%" y1="46.7031557%" x2="11.8230883%" y2="60.3004066%" id="linearGradient-1">
            <stop stop-color="#000000" stop-opacity="0" offset="0%"></stop>
            <stop stop-color="#000000" offset="99%"></stop>
        </linearGradient>
        <linearGradient x1="1.59066972%" y1="92.0437812%" x2="164.080147%" y2="-63.2528618%" id="linearGradient-2">
            <stop stop-color="#000000" stop-opacity="0" offset="0%"></stop>
            <stop stop-color="#000000" offset="99%"></stop>
        </linearGradient>
        <linearGradient x1="0%" y1="50.0028767%" x2="99.9885439%" y2="50.0028767%" id="linearGradient-3">
            <stop stop-color="#000000" stop-opacity="0" offset="0%"></stop>
            <stop stop-color="#000000" offset="99%"></stop>
        </linearGradient>
        <linearGradient x1="46.4606079%" y1="-11.9080219%" x2="60.6690255%" y2="191.249032%" id="linearGradient-4">
            <stop stop-color="#000000" stop-opacity="0" offset="0%"></stop>
            <stop stop-color="#000000" offset="99%"></stop>
        </linearGradient>
        <linearGradient x1="48.9684564%" y1="-74.4108924%" x2="51.9752149%" y2="329.734731%" id="linearGradient-5">
            <stop stop-color="#000000" stop-opacity="0" offset="0%"></stop>
            <stop stop-color="#000000" offset="99%"></stop>
        </linearGradient>
        <linearGradient x1="49.9618612%" y1="-298.681319%" x2="49.9618612%" y2="768.351648%" id="linearGradient-6">
            <stop stop-color="#000000" stop-opacity="0" offset="0%"></stop>
            <stop stop-color="#000000" offset="99%"></stop>
        </linearGradient>
    </defs>
    <g id="confirm" stroke="none" stroke-width="1" fill="none" fill-rule="evenodd">
        <rect id="Rectangle" fill="#FFFFFF" x="0" y="0" width="300" height="236"></rect>
        <g id="authentication-(1)" transform="translate(81.000000, 28.000000)" fill-rule="nonzero">
            <path d="M127.164706,137.969748 C123.373109,151.078992 115.568067,163.442017 103.971429,170.652101 C96.9680672,175.008403 88.8857143,177.357983 80.7478992,178.719328 C79.9109244,178.860504 79.0789916,178.976471 78.2268908,179.082353 C69.2428281,180.301965 60.1227634,180.099486 51.2016807,178.482353 C38.0571429,176.057143 25.5378151,170.369748 16.2554622,160.734454 C3.14621849,147.07563 1.85546218,125.258824 8.15294118,107.420168 C10.6739496,100.285714 14.2033613,93.5193277 16.2201681,86.2436975 C20.9042017,68.989916 16.3764706,50.3394958 20.3546218,32.9042017 C21.4235294,28.1697479 23.1731092,23.4857143 26.1327731,19.6285714 C28.7294118,16.1596639 32.2134454,13.507563 35.8134454,11.1176471 C46.5731092,4.05882353 59.2840336,-0.811764706 72.1462185,0.115966387 C85.0084034,1.04369748 97.810084,8.59663866 102.610084,20.5512605 C105.907563,28.7647059 105.267227,38.102521 108.267227,46.4117647 C111.751261,56.0773109 119.757983,63.4084034 124.295798,72.6302521 C128.036975,80.2487395 129.277311,88.8403361 129.983193,97.3361345 C131.117647,110.94958 130.971429,124.85042 127.164706,137.969748 Z" id="Path" fill="#07849F" opacity="0.18"></path>
            <path d="M137.505882,26.1680672 L137.505882,104.561345 C137.505882,109.682277 133.354546,113.833613 128.233613,113.833613 L9.6,113.833613 C7.14084139,113.833613 4.78240351,112.856716 3.04351578,111.117829 C1.30462805,109.378941 0.327731092,107.020503 0.327731092,104.561345 L0.327731092,26.1680672 C0.329157807,25.8108056 0.351042372,25.4539189 0.393277311,25.0991597 C0.931447771,20.4223049 4.89228395,16.8931262 9.6,16.8957968 L128.233613,16.8957968 C132.941329,16.8931262 136.902166,20.4223049 137.440336,25.0991597 C137.482571,25.4539189 137.504456,25.8108056 137.505882,26.1680672 L137.505882,26.1680672 Z" id="Path" stroke="#07849F" stroke-width="0.650420168" fill="#FFFFFF"></path>
            <rect id="Rectangle" fill="#07849F" opacity="0.18" x="7.91596639" y="43.0840336" width="73.805042" height="6.97815126" rx="3.48907563"></rect>
            <rect id="Rectangle" fill="#07849F" opacity="0.18" x="7.91596639" y="52.8756303" width="73.805042" height="47.8588235" rx="3.48907563"></rect>
            <circle id="Oval" fill="#07849F" opacity="0.18" cx="106.078992" cy="66.9226891" r="14.3445378"></circle>
            <path d="M72.9882353,50.8537815 C74.5764706,53.4453782 72.5546218,89.7428571 73.8857143,91.5529412 C77.0067227,95.7983193 83.697479,107.959664 83.4352941,113.233613 C78.4386555,113.415126 70.9915966,113.344538 66.0554622,112.573109 C65.1478992,112.431933 64.1848739,112.245378 63.5344538,111.610084 C62.9813537,110.978772 62.6024954,110.214104 62.4352941,109.391597 L56.4907563,88.9714286 C54.0907563,80.7277311 51.6957983,71.8840336 54.287395,63.6957983 C55.5932773,59.5663866 58.0890756,55.9310924 60.5495798,52.3663866 C61.9260504,50.3495798 59.697479,46.6386555 62.2588235,46.210084 C64.9411765,45.7563025 71.6521008,48.6806723 72.9882353,50.8537815 Z" id="Path" fill="url(#linearGradient-1)"></path>
            <path d="M78.2369748,155.042017 L78.2369748,179.077311 C69.2529121,180.296923 60.1328475,180.094444 51.2117647,178.477311 C51.0201681,174.680672 50.5109244,166.507563 49.5831933,162.635294 C48.3579832,157.492437 43.9613445,156.267227 40.0386555,151.628571 C36.1159664,146.989916 34.6537815,129.337815 33.6756303,126.418487 C32.697479,123.49916 26.8285714,118.351261 23.7630252,114.917647 C21.9737156,113.089146 21.5777246,110.311085 22.7848739,108.055462 C22.7848739,108.055462 37.2201681,114.917647 37.2201681,113.445378 C37.2201681,111.973109 33.9226891,108.801681 33.9226891,108.801681 C33.9226891,108.801681 25.3512605,104.768067 22.2907563,101.329412 C19.2302521,97.8907563 21.1915966,93.7663866 21.1915966,93.7663866 L39.5495798,100.452101 L41.2588235,98.989916 L34.1647059,95.5613445 C34.1647059,95.5613445 27.0554622,91.8857143 22.8957983,88.7042017 C18.7361345,85.5226891 20.4605042,77.9445378 20.4605042,77.9445378 L47.1378151,90.1764706 L43.9563025,83.3294118 C43.9563025,83.3294118 28.0487395,78.4285714 23.6420168,74.2537815 C19.2352941,70.0789916 20.4605042,65.4403361 20.4605042,65.4403361 C20.4605042,65.4403361 52.5277311,73.0285714 56.687395,75.4840336 C60.8470588,77.9394958 74.5512605,107.551261 75.0352941,109.008403 C75.5193277,110.465546 78.2369748,155.042017 78.2369748,155.042017 Z" id="Path" fill="#F7AF87"></path>
            <path d="M53.5663866,133.290756 L49.2857143,148.104202 C49.2857143,148.104202 38.6369748,149.203361 35.087395,133.416807 C31.5378151,117.630252 53.5663866,133.290756 53.5663866,133.290756 Z" id="Path" fill="url(#linearGradient-2)"></path>
            <rect id="Rectangle" fill="#07849F" x="24.6252101" y="45.8672269" width="44.0117647" height="87.6352941" rx="7.74957983"></rect>
            <rect id="Rectangle" fill="url(#linearGradient-3)" x="24.6252101" y="45.8672269" width="44.0117647" height="87.6352941" rx="7.74957983"></rect>
            <rect id="Rectangle" fill="#07849F" x="24.6252101" y="45.7764706" width="44.0117647" height="85.7697479" rx="7.66890756"></rect>
            <rect id="Rectangle" fill="#FFFFFF" x="26.9546218" y="47.7579832" width="39.5848739" height="77.0016807" rx="6.89243697"></rect>
            <path d="M47.8487395,82.129411 C38.3169551,82.1266275 30.5876599,89.8514083 30.5848747,99.3831928 C30.5820909,108.914977 38.3068715,116.644273 47.838656,116.647058 C57.3704404,116.649842 65.099736,108.925062 65.102521,99.3932773 C65.0997423,89.8637957 57.3782178,82.1377584 47.8487395,82.129411 L47.8487395,82.129411 Z M47.8487395,113.712606 C42.1667762,113.714645 37.0431616,110.293482 34.867355,105.044617 C32.6915485,99.7957531 33.8921103,93.7530359 37.9091441,89.7345597 C41.926178,85.7160835 47.9684638,84.5133524 53.218109,86.6872744 C58.4677541,88.8611965 61.8907563,93.9835825 61.8907563,99.6655462 C61.8824252,107.418101 55.601291,113.701491 47.8487395,113.712606 Z" id="Shape" fill="#07849F" opacity="0.18"></path>
            <path d="M39.6352941,96.4840336 C39.5509005,96.4836917 39.467242,96.4683259 39.3882353,96.4386555 C39.0549901,96.3012615 38.8934378,95.9220625 39.0252101,95.5865546 C39.0252101,95.5260504 41.5865546,89.4151261 47.8436975,89.6067227 C48.0175646,89.6119901 48.1822078,89.6861524 48.3013658,89.812876 C48.4205239,89.9395996 48.4844236,90.1084909 48.4789916,90.2823529 C48.4764081,90.4562203 48.4037735,90.6216887 48.2775401,90.7412783 C48.1513066,90.8608678 47.9821565,90.9244587 47.8084034,90.9176471 C42.4336134,90.7663866 40.3260504,95.8588235 40.2453782,96.0756303 C40.1467979,96.3254403 39.9038209,96.4880943 39.6352941,96.4840336 Z" id="Path" fill="#07849F"></path>
            <path d="M56.5058824,98.9848747 C56.1572275,98.9853797 55.8691935,98.7128553 55.8504202,98.3647059 C55.7912888,95.4305426 54.0144104,92.8047112 51.312605,91.6588235 C50.974167,91.5376548 50.7964672,91.1665096 50.9142857,90.8268908 C50.9691923,90.6616843 51.0885138,90.5256673 51.2451639,90.4497157 C51.401814,90.3737641 51.5825046,90.3643208 51.7462185,90.4235294 C54.9647468,91.7256462 57.0956452,94.82279 57.1613445,98.2941176 C57.1785566,98.6553116 56.9021303,98.9632011 56.5411765,98.9848747 L56.5058824,98.9848747 Z" id="Path" fill="#07849F"></path>
            <path d="M55.1798319,104.142857 C55.0341608,104.142494 54.8925693,104.094707 54.7764706,104.006723 C54.4934048,103.783409 54.443844,103.373405 54.6655462,103.089076 C55.1523647,102.365874 55.4631735,101.538777 55.5731092,100.67395 C55.5872193,100.431777 55.733928,100.2172 55.9544707,100.116167 C56.1750134,100.015134 56.433323,100.044169 56.625933,100.191641 C56.8185429,100.339114 56.9139542,100.580906 56.8739496,100.820168 C56.7306556,101.924659 56.3224166,102.978123 55.6840336,103.890756 C55.5625306,104.04646 55.3772969,104.139077 55.1798319,104.142857 L55.1798319,104.142857 Z" id="Path" fill="#07849F"></path>
            <path d="M41.8235294,97.2857143 C41.7310759,97.2855525 41.6398089,97.2648883 41.5563025,97.2252101 C41.2291175,97.076307 41.0829088,96.6916657 41.2285714,96.3630252 C42.2687591,94.0255102 44.4161704,92.3689899 46.9411765,91.9563025 C48.892437,91.6386555 50.7529412,92.1378151 51.7865546,93.2571429 C51.9581088,93.4269355 52.0224638,93.6772743 51.9540649,93.9087521 C51.885666,94.1402299 51.6955827,94.3153852 51.4592951,94.3646656 C51.2230076,94.413946 50.9787556,94.3293761 50.8235294,94.1445378 C50.097479,93.3579832 48.6554622,93.005042 47.1478992,93.2521008 C45.058552,93.5914417 43.2816682,94.9625057 42.4235294,96.897479 C42.3168548,97.1332568 42.0823154,97.2850177 41.8235294,97.2857143 Z" id="Path" fill="#07849F"></path>
            <path d="M49.6336134,108.584925 C49.3667286,108.58821 49.1248942,108.42816 49.0236617,108.181197 C48.9224292,107.934234 48.9823487,107.650492 49.1747899,107.465546 C55.9260504,100.885714 52.2,95.9546218 52.2,95.9042017 C52.0529482,95.6254229 52.1251338,95.2814541 52.3718528,95.0853125 C52.6185719,94.8891708 52.9699592,94.8963991 53.2084034,95.102521 C53.2537815,95.1579832 57.6605042,101.011765 50.0773109,108.403361 C49.9576368,108.51772 49.7991263,108.582565 49.6336134,108.584925 L49.6336134,108.584925 Z" id="Path" fill="#07849F"></path>
            <path d="M39.594958,102.504216 C39.3369745,102.50568 39.1021179,102.355688 38.994958,102.121008 C38.4,100.789916 38.7781513,98.3344538 38.8235294,98.0621849 C38.8852976,97.70726 39.2182639,97.4659153 39.5747899,97.5176471 C39.7468028,97.5460378 39.9004181,97.6417864 40.0016617,97.7837166 C40.1029053,97.9256469 40.1434345,98.1020635 40.1142857,98.2739496 C39.9731092,99.1613445 39.8621849,100.85042 40.189916,101.581513 C40.2830659,101.78359 40.2664489,102.019262 40.1458649,102.20627 C40.025281,102.393277 39.8174666,102.505664 39.594958,102.504216 L39.594958,102.504216 Z" id="Path" fill="#07849F"></path>
            <path d="M40.7394958,105.574846 C40.4567221,105.578502 40.2039536,105.399071 40.1141798,105.130901 C40.024406,104.86273 40.1182019,104.567282 40.3462185,104.4 C41.4,103.608403 41.112605,100.684034 40.6789916,99.0252101 C40.5895606,98.6758898 40.799079,98.3199337 41.1478992,98.2285714 C41.315815,98.1827689 41.4951124,98.2067304 41.6451082,98.295019 C41.795104,98.3833077 41.9030806,98.5284378 41.9445378,98.697479 C42.0857143,99.2016807 43.2252101,103.87563 41.1327731,105.443697 C41.0200265,105.53014 40.8815586,105.576296 40.7394958,105.574846 Z" id="Path" fill="#07849F"></path>
            <path d="M42.3781513,107.092437 C42.0864279,107.091805 41.8302318,106.898452 41.7496262,106.618085 C41.6690207,106.337718 41.783408,106.037823 42.0302521,105.882353 C42.1310924,105.816807 44.3495798,104.369748 43.4218487,100.658824 C42.8218487,98.2487395 43.4218487,96.7411765 44.0823529,95.9042017 C45.0409518,94.7231809 46.4892076,94.0483197 48.010084,94.0739496 C48.1837295,94.0642841 48.3537453,94.1262288 48.4804735,94.2453342 C48.6072017,94.3644397 48.6795608,94.530291 48.6806723,94.7042017 C48.687477,94.877583 48.6247221,95.0464959 48.5063636,95.1733763 C48.388005,95.3002567 48.2238556,95.3745851 48.0504202,95.3798319 C46.9261808,95.3507029 45.8498465,95.8350533 45.1260504,96.6957983 C44.4655462,97.5680672 44.3142857,98.8336134 44.692437,100.341176 C45.8571429,105.010084 42.8470588,106.895798 42.7210084,106.996639 C42.6175414,107.059111 42.4990155,107.092228 42.3781513,107.092437 Z" id="Path" fill="#07849F"></path>
            <path d="M49.1747899,103.815126 C48.9284013,103.811365 48.7052949,103.668689 48.5985236,103.446605 C48.4917524,103.224521 48.5196528,102.961168 48.6705882,102.766387 C49.6436975,101.495798 50.4201681,99.5848739 50.0369748,98.5815126 C49.8830798,98.1968752 49.5225489,97.9343146 49.1092437,97.9058824 C48.3882353,97.7697479 47.8739496,97.8504202 47.5663866,98.1529412 C47.0268908,98.6571429 47.102521,99.8521008 47.1731092,100.260504 C47.2353063,100.498212 47.1593341,100.750741 46.9763053,100.914674 C46.7932766,101.078607 46.5339353,101.126407 46.3044888,101.038499 C46.0750423,100.950591 45.9140316,100.741741 45.887395,100.497479 C45.8470588,100.280672 45.5243697,98.3344538 46.6436975,97.2252101 C47.2739496,96.6 48.1865546,96.3983193 49.3563025,96.6201681 C50.220813,96.7369463 50.9521418,97.317366 51.2621849,98.1327731 C51.8571429,99.7008403 50.8739496,102.055462 49.7092437,103.573109 C49.5807027,103.735451 49.3815932,103.825614 49.1747899,103.815126 L49.1747899,103.815126 Z" id="Path" fill="#07849F"></path>
            <path d="M44.4957983,108.035301 C44.2300493,108.033593 43.9916286,107.871597 43.8921682,107.625157 C43.7927078,107.378716 43.8518947,107.09661 44.0420168,106.910924 C45.8571429,105.146218 45.8067227,102.509244 45.8067227,102.484034 C45.7955842,102.122032 46.080015,101.819542 46.4420168,101.808403 C46.8040186,101.797265 47.1065085,102.081696 47.1176471,102.443697 C47.1176471,102.57479 47.1932773,105.67563 44.9546218,107.848739 C44.8322699,107.969003 44.6673578,108.036055 44.4957983,108.035301 L44.4957983,108.035301 Z" id="Path" fill="#07849F"></path>
            <path d="M46.9210084,108.741185 C46.8247369,108.741185 46.729794,108.718707 46.6436975,108.67563 C46.4869756,108.602377 46.3658933,108.469706 46.307229,108.30696 C46.2485647,108.144214 46.2571522,107.964802 46.3310924,107.808403 L47.6521008,105.010084 C47.8126346,104.693694 48.1957683,104.562466 48.5165694,104.713993 C48.8373706,104.865521 48.9793747,105.244792 48.8369748,105.569748 L47.5159664,108.368067 C47.4066239,108.597149 47.1748437,108.742502 46.9210084,108.741185 L46.9210084,108.741185 Z" id="Path" fill="#07849F"></path>
            <path d="M71.4957983,120.373109 C69.1815126,116.072269 66.8067227,111.751261 63.6453782,108.02521 C60.4840336,104.29916 56.4453782,101.157983 51.7411765,99.8571429 C50.6117647,99.5394958 49.2201681,99.4134454 48.4537815,100.321008 C47.9495798,100.966387 47.9495798,101.894118 48.0655462,102.721008 C48.4492894,105.49048 49.4957174,108.126441 51.1159664,110.405042 C52.3512605,112.139496 53.8991597,113.636975 55.0739496,115.411765 C56.2487395,117.186555 57.0554622,119.37479 56.5411765,121.436975 C53.6268908,133.084034 50.5361345,146.067227 58.2605042,155.258824 C59.0046128,156.234999 59.9438864,157.045487 61.0184874,157.638655 C62.0479734,158.073473 63.1446967,158.327613 64.2605042,158.389916 C66.1731092,158.584874 68.087395,158.689076 70.0033613,158.702521 C71.255495,158.786071 72.5109213,158.598617 73.6840336,158.152941 C76.9613445,156.67563 77.4201681,152.294118 77.405042,148.69916 C77.3647059,138.801681 76.1798319,129.10084 71.4957983,120.373109 Z" id="Path" fill="#F7AF87"></path>
            <path d="M137.440336,25.0991597 L0.393277311,25.0991597 C0.931447771,20.4223049 4.89228395,16.8931262 9.6,16.8957968 L128.233613,16.8957968 C132.941329,16.8931262 136.902166,20.4223049 137.440336,25.0991597 Z" id="Path" fill="#07849F"></path>
            <path d="M102.897479,72.5092437 L92.4907563,60.9882353 C91.7521487,60.2070805 91.6799098,59.0087651 92.3193277,58.1445378 C92.7109179,57.6505134 93.2997648,57.3534571 93.929802,57.3321 C94.5598392,57.3107428 95.1674506,57.5672412 95.5915966,58.0336134 L103.951261,67.2907563 C104.221547,67.5871862 104.602421,67.7585962 105.003535,67.7643264 C105.404649,67.7700566 105.790264,67.6095964 106.068908,67.3210084 L126.121008,46.6033613 C126.559331,46.1503122 127.174547,45.9126854 127.803608,45.9534579 C128.432669,45.9942304 129.012063,46.3092855 129.388235,46.8151261 C130.001535,47.7013069 129.891043,48.8997193 129.12605,49.6588235 L106.941176,72.5747899 C106.407263,73.123421 105.670622,73.4274207 104.905177,73.4150132 C104.139732,73.4026058 103.413331,73.0748909 102.897479,72.5092437 Z" id="Path" fill="url(#linearGradient-4)"></path>
            <path d="M102.897479,71.3142857 L92.4907563,59.7932773 C91.7521487,59.0121225 91.6799098,57.8138071 92.3193277,56.9495798 C92.7106802,56.4546616 93.3002588,56.1573708 93.9308811,56.1369654 C94.5615034,56.1165601 95.1690677,56.3751144 95.5915966,56.8436975 L103.951261,66.0756303 C104.220842,66.3727279 104.601324,66.5450608 105.002443,66.5517461 C105.403562,66.5584314 105.789575,66.3988735 106.068908,66.1109244 L126.121008,45.4033613 C126.559331,44.9503122 127.174547,44.7126854 127.803608,44.7534579 C128.432669,44.7942304 129.012063,45.1092855 129.388235,45.6151261 C130.001535,46.5013069 129.891043,47.6997193 129.12605,48.4588235 L106.941176,71.3747899 C106.408683,71.9254298 105.672144,72.2312875 104.906231,72.2198275 C104.140319,72.2083674 103.41326,71.8806105 102.897479,71.3142857 Z" id="Path" fill="#07849F"></path>
            <circle id="Oval" fill="#07849F" opacity="0.18" cx="39.7966387" cy="65.2991597" r="2.41512605"></circle>
            <circle id="Oval" fill="#07849F" opacity="0.18" cx="46.1647059" cy="65.2991597" r="2.41512605"></circle>
            <circle id="Oval" fill="#07849F" opacity="0.18" cx="52.5277311" cy="65.2991597" r="2.41512605"></circle>
            <rect id="Rectangle" fill="#07849F" opacity="0.18" x="7.91596639" y="31.3361345" width="73.805042" height="6.97815126" rx="3.48907563"></rect>
            <path d="M68.5008403,114.685714 C68.5008403,114.685714 69.5092437,115.331092 69.7865546,114.226891 C70.0638655,113.122689 71.3445378,101.284034 71.3445378,101.284034 L68.5008403,95.5008403 L68.5008403,114.685714 Z" id="Path" fill="url(#linearGradient-5)"></path>
            <rect id="Rectangle" fill="url(#linearGradient-6)" x="39.9529412" y="127.169748" width="13.2201681" height="2.29411765" rx="1.14705882"></rect>
        </g>
    </g>
</svg>