<?xml version="1.0" encoding="UTF-8"?>
<svg width="300px" height="236px" viewBox="0 0 300 236" version="1.1" xmlns="http://www.w3.org/2000/svg" xmlns:xlink="http://www.w3.org/1999/xlink">
    <!-- Generator: Sketch 59.1 (86144) - https://sketch.com -->
    <title>connect</title>
    <desc>Created with Sketch.</desc>
    <defs>
        <linearGradient x1="46.0682041%" y1="36.6210381%" x2="62.5812789%" y2="84.6086119%" id="linearGradient-1">
            <stop stop-color="#000000" stop-opacity="0" offset="0%"></stop>
            <stop stop-color="#000000" offset="99%"></stop>
        </linearGradient>
        <linearGradient x1="50.102658%" y1="50.2736256%" x2="49.7114478%" y2="49.2248281%" id="linearGradient-2">
            <stop stop-color="#000000" stop-opacity="0" offset="0%"></stop>
            <stop stop-color="#000000" offset="99%"></stop>
        </linearGradient>
        <linearGradient x1="190.015221%" y1="-29.560546%" x2="-90.8066971%" y2="130.027499%" id="linearGradient-3">
            <stop stop-color="#000000" stop-opacity="0" offset="0%"></stop>
            <stop stop-color="#000000" offset="99%"></stop>
        </linearGradient>
        <linearGradient x1="125.83603%" y1="-22.9324547%" x2="-26.2675297%" y2="123.360791%" id="linearGradient-4">
            <stop stop-color="#000000" stop-opacity="0" offset="0%"></stop>
            <stop stop-color="#000000" offset="99%"></stop>
        </linearGradient>
        <linearGradient x1="50.7132198%" y1="153.750864%" x2="49.0124649%" y2="31.3875561%" id="linearGradient-5">
            <stop stop-color="#000000" stop-opacity="0" offset="0%"></stop>
            <stop stop-color="#000000" offset="99%"></stop>
        </linearGradient>
        <linearGradient x1="50.2461707%" y1="47.3577457%" x2="49.5897155%" y2="54.6285844%" id="linearGradient-6">
            <stop stop-color="#000000" stop-opacity="0" offset="0%"></stop>
            <stop stop-color="#000000" offset="99%"></stop>
        </linearGradient>
    </defs>
    <g id="connect" stroke="none" stroke-width="1" fill="none" fill-rule="evenodd">
        <g id="password-(1)" transform="translate(32.000000, 28.000000)" fill-rule="nonzero">
            <path d="M220.737987,49.5744527 C211.1012,38.6591597 198.751088,30.5383606 186.541127,22.5516971 C171.780416,12.8827484 156.375011,2.96229519 138.889763,0.564619464 C122.189362,-1.7268655 105.13578,3.18026571 90.3358269,11.233997 C75.5358741,19.2877283 62.6475818,30.353924 49.8714104,41.3306958 L19.8062031,67.185353 C13.4825869,72.623438 6.97957727,78.2850826 3.38049783,85.7966821 C0.325204527,92.168128 -0.397974988,99.456168 0.185053458,106.475937 C1.60788487,122.63574 9.49866932,137.543336 22.0766504,147.834446 C30.810865,154.893337 41.3446193,159.34776 51.8223132,163.450077 C71.073464,170.961677 90.9188554,177.590216 111.50985,179.434582 C133.49675,181.407495 155.562134,177.858488 177.347216,174.320658 C204.099252,169.978015 219.448598,158.637959 223.877371,132.364128 C226.282364,118.145743 234.080369,105.263126 235.717334,91.0056186 C237.494449,75.6526694 230.699925,60.8809748 220.737987,49.5744527 Z" id="Path" fill="#07849F" opacity="0.18"></path>
            <rect id="Rectangle" fill="#07849F" x="39.2" y="18.4" width="177.6" height="125.6" rx="13.42"></rect>
            <rect id="Rectangle" fill="#FAFAFA" x="45.6" y="22.4" width="165.6" height="115.2" rx="12.41"></rect>
            <polygon id="Path" fill="url(#linearGradient-1)" points="149.721663 124 123.641297 110.945024 40 110.945024 40 80.8 160 80.8 149.328718 102.374711"></polygon>
            <path d="M159.2,37.3581986 L159.2,96.2249358 C159.2,100.510219 155.756802,103.987606 151.501339,104 L32.5042624,104 C30.4580647,104 28.4959176,103.180311 27.0506091,101.721717 C25.6053006,100.263122 24.79557,98.2854586 24.8,96.2249358 L24.8,37.3581986 C24.8,33.0734638 28.2493258,29.6 32.5042624,29.6 L151.501339,29.6 C155.751545,29.6092864 159.193859,33.0782215 159.2,37.3581986 Z" id="Path" fill="#07849F"></path>
            <path d="M91.9089741,45.0898365 C91.196272,45.355069 90.4084502,44.9892728 90.1264451,44.2621847 L88.7909281,40.5919768 C87.9965913,38.5063131 85.7295184,37.467715 83.7023781,38.2607952 C81.6752378,39.0538755 80.6402767,41.3843318 81.3793601,43.4916123 L83.2281131,48.5431425 C83.257867,48.6264439 83.2800379,48.7124361 83.2943371,48.8 L80.3694443,48.8 L78.7966246,44.5019183 C77.5581967,40.9319016 79.3148049,36.9940481 82.7445475,35.6517138 C86.17429,34.3093795 90.0113159,36.0579939 91.3681449,39.5816708 L92.7091806,43.2461707 C92.8399864,43.6003722 92.8291238,43.9938546 92.6789907,44.3397593 C92.5288577,44.685664 92.2517992,44.9555481 91.9089741,45.0898365 L91.9089741,45.0898365 Z" id="Path" fill="#FFFFFF"></path>
            <rect id="Rectangle" fill="#07849F" x="25.6" y="142.4" width="201.6" height="14.4" rx="7.2"></rect>
            <rect id="Rectangle" fill="url(#linearGradient-2)" x="25.6" y="142.4" width="201.6" height="14.4" rx="7.2"></rect>
            <polygon id="Path" fill="#07849F" points="125.6 103.69396 149.6 124 149.6 99.2"></polygon>
            <rect id="Rectangle" fill="#FFFFFF" x="42.4" y="71.2" width="98.4" height="16.8" rx="6.19"></rect>
            <rect id="Rectangle" fill="url(#linearGradient-3)" x="78.4" y="48.8" width="18.4" height="16.8"></rect>
            <rect id="Rectangle" fill="url(#linearGradient-4)" x="85.6" y="48.8" width="11.2" height="16.8"></rect>
            <path d="M86.9595506,56.7934584 C86.9595506,56.7934584 85.1393258,55.2556853 86.7292135,53.9457305 C88.3191011,52.6357757 90.1,55.3695944 88.4146067,56.7934584 L89.6,60 L85.6,60 L86.9595506,56.7934584 Z" id="Path" fill="url(#linearGradient-5)"></path>
            <circle id="Oval" fill="#000000" cx="56.4" cy="79.6" r="3.6"></circle>
            <circle id="Oval" fill="#000000" cx="66" cy="79.6" r="3.6"></circle>
            <circle id="Oval" fill="#000000" cx="75.6" cy="79.6" r="3.6"></circle>
            <circle id="Oval" fill="#000000" cx="85.2" cy="79.6" r="3.6"></circle>
            <circle id="Oval" fill="#000000" cx="94.8" cy="79.6" r="3.6"></circle>
            <circle id="Oval" fill="#000000" cx="104.4" cy="79.6" r="3.6"></circle>
            <circle id="Oval" fill="#000000" cx="114" cy="79.6" r="3.6"></circle>
            <circle id="Oval" fill="#000000" cx="123.6" cy="79.6" r="3.6"></circle>
            <path d="M29.9116854,23.994495 C28.7654738,23.9939318 27.7284062,23.3459706 27.2699216,22.3439178 L21.0404351,8.65513074 C20.6282905,7.75289823 20.7520698,6.70946885 21.3651466,5.91789234 C21.9782235,5.12631582 22.9874569,4.7068515 24.0126784,4.81750751 C25.0378999,4.92816352 25.923354,5.55212859 26.3354987,6.45436111 L32.5592171,20.1486501 C32.9486549,20.9997928 32.8616042,21.9809033 32.3277418,22.7575095 C31.7938793,23.5341156 30.885276,24.0013764 29.9116854,24 L29.9116854,23.994495 Z" id="Path" fill="#07849F"></path>
            <path d="M2.88686998,43.1984981 C1.34425796,43.2478225 0.0524562332,42.0761311 0.00155003648,40.5814522 C-0.0493561603,39.0867733 1.15991031,37.8351113 2.70252233,37.7857869 L17.8134434,36.8060861 C18.8113384,36.7413046 19.7691003,37.1972725 20.3259495,38.0022311 C20.8827986,38.8071897 20.9541362,39.8388467 20.5130903,40.7085868 C20.0720443,41.5783269 19.18562,42.154016 18.187725,42.2187974 L3.07121763,43.1930854 L2.88686998,43.1984981 Z" id="Path" fill="#07849F"></path>
            <path d="M18.7615275,29.6 C18.1994179,29.5982603 17.6507567,29.4270241 17.1865047,29.108438 L4.41005605,20.3975028 C3.13851302,19.5004269 2.81868702,17.7434591 3.69182161,16.4518737 C4.56495621,15.1602883 6.30773648,14.8123493 7.60558971,15.6705058 L20.3592943,24.381441 C21.3887058,25.0876031 21.8406006,26.3853998 21.4740019,27.5827692 C21.1074032,28.7801386 20.0077845,29.5979102 18.7615275,29.6 L18.7615275,29.6 Z" id="Path" fill="#07849F"></path>
            <rect id="Rectangle" fill="url(#linearGradient-6)" x="106.4" y="142.4" width="40.8" height="4"></rect>
        </g>
    </g>
</svg>