<?xml version="1.0" encoding="UTF-8"?>
<svg width="300px" height="236px" viewBox="0 0 300 236" version="1.1" xmlns="http://www.w3.org/2000/svg" xmlns:xlink="http://www.w3.org/1999/xlink">
    <!-- Generator: Sketch 59.1 (86144) - https://sketch.com -->
    <title>swapping</title>
    <desc>Created with Sketch.</desc>
    <defs>
        <linearGradient x1="43.1109126%" y1="8.2802164%" x2="70.3585729%" y2="140.62732%" id="linearGradient-1">
            <stop stop-color="#010101" stop-opacity="0" offset="0%"></stop>
            <stop stop-color="#010101" offset="95%"></stop>
        </linearGradient>
        <linearGradient x1="92.0350083%" y1="52.99472%" x2="-99.9541501%" y2="39.2111443%" id="linearGradient-2">
            <stop stop-color="#010101" stop-opacity="0" offset="0%"></stop>
            <stop stop-color="#010101" offset="95%"></stop>
        </linearGradient>
        <linearGradient x1="44.7536513%" y1="21.6772423%" x2="67.260674%" y2="143.200137%" id="linearGradient-3">
            <stop stop-color="#010101" stop-opacity="0" offset="0%"></stop>
            <stop stop-color="#010101" offset="95%"></stop>
        </linearGradient>
        <linearGradient x1="39.2218963%" y1="65.8642944%" x2="78.8917668%" y2="7.50043607%" id="linearGradient-4">
            <stop stop-color="#010101" stop-opacity="0" offset="0%"></stop>
            <stop stop-color="#010101" offset="95%"></stop>
        </linearGradient>
        <linearGradient x1="40.089964%" y1="15.420082%" x2="62.8596899%" y2="209.255464%" id="linearGradient-5">
            <stop stop-color="#010101" stop-opacity="0" offset="0%"></stop>
            <stop stop-color="#010101" offset="95%"></stop>
        </linearGradient>
        <linearGradient x1="51.0374646%" y1="-8.28536543%" x2="30.9287541%" y2="157.648701%" id="linearGradient-6">
            <stop stop-color="#010101" stop-opacity="0" offset="0%"></stop>
            <stop stop-color="#010101" offset="95%"></stop>
        </linearGradient>
        <linearGradient x1="48.6181826%" y1="22.3362456%" x2="41.2143078%" y2="125.452702%" id="linearGradient-7">
            <stop stop-color="#FFFFFF" stop-opacity="0" offset="0%"></stop>
            <stop stop-color="#FFFFFF" offset="95%"></stop>
        </linearGradient>
        <linearGradient x1="48.5689423%" y1="22.3756826%" x2="41.178871%" y2="125.434573%" id="linearGradient-8">
            <stop stop-color="#FFFFFF" stop-opacity="0" offset="0%"></stop>
            <stop stop-color="#FFFFFF" offset="66%"></stop>
        </linearGradient>
        <linearGradient x1="50.3300957%" y1="-1.57944601%" x2="42.9337137%" y2="101.528764%" id="linearGradient-9">
            <stop stop-color="#FFFFFF" stop-opacity="0" offset="0%"></stop>
            <stop stop-color="#FFFFFF" offset="95%"></stop>
        </linearGradient>
        <linearGradient x1="48.5683803%" y1="22.3800761%" x2="41.1754066%" y2="125.459203%" id="linearGradient-10">
            <stop stop-color="#FFFFFF" stop-opacity="0" offset="0%"></stop>
            <stop stop-color="#FFFFFF" stop-opacity="0.67" offset="38%"></stop>
            <stop stop-color="#FFFFFF" offset="95%"></stop>
        </linearGradient>
        <linearGradient x1="48.618599%" y1="22.3794576%" x2="41.2250279%" y2="125.468073%" id="linearGradient-11">
            <stop stop-color="#FFFFFF" stop-opacity="0" offset="0%"></stop>
            <stop stop-color="#FFFFFF" offset="58%"></stop>
        </linearGradient>
        <linearGradient x1="48.5630776%" y1="22.3762987%" x2="41.1715936%" y2="125.438027%" id="linearGradient-12">
            <stop stop-color="#FFFFFF" stop-opacity="0" offset="0%"></stop>
            <stop stop-color="#FFFFFF" offset="53%"></stop>
        </linearGradient>
        <linearGradient x1="43.1154588%" y1="8.28926983%" x2="70.364709%" y2="140.4563%" id="linearGradient-13">
            <stop stop-color="#010101" stop-opacity="0" offset="0%"></stop>
            <stop stop-color="#010101" offset="95%"></stop>
        </linearGradient>
        <linearGradient x1="92.0553868%" y1="52.987175%" x2="-100.14921%" y2="39.2104671%" id="linearGradient-14">
            <stop stop-color="#FFFFFF" stop-opacity="0" offset="0%"></stop>
            <stop stop-color="#FFFFFF" offset="95%"></stop>
        </linearGradient>
        <linearGradient x1="43.1003865%" y1="8.29418005%" x2="70.3751233%" y2="140.393067%" id="linearGradient-15">
            <stop stop-color="#010101" stop-opacity="0" offset="0%"></stop>
            <stop stop-color="#010101" offset="95%"></stop>
        </linearGradient>
        <linearGradient x1="92.0710305%" y1="52.9555921%" x2="-100.133567%" y2="39.1788842%" id="linearGradient-16">
            <stop stop-color="#FFFFFF" stop-opacity="0" offset="0%"></stop>
            <stop stop-color="#FFFFFF" offset="95%"></stop>
        </linearGradient>
        <linearGradient x1="43.135399%" y1="8.31842727%" x2="70.3751233%" y2="140.393067%" id="linearGradient-17">
            <stop stop-color="#010101" stop-opacity="0" offset="0%"></stop>
            <stop stop-color="#010101" offset="95%"></stop>
        </linearGradient>
        <linearGradient x1="92.0758305%" y1="52.992489%" x2="-100.128767%" y2="39.2157811%" id="linearGradient-18">
            <stop stop-color="#FFFFFF" stop-opacity="0" offset="0%"></stop>
            <stop stop-color="#FFFFFF" offset="95%"></stop>
        </linearGradient>
        <linearGradient x1="43.1331867%" y1="8.32270269%" x2="70.371514%" y2="140.383795%" id="linearGradient-19">
            <stop stop-color="#010101" stop-opacity="0" offset="0%"></stop>
            <stop stop-color="#010101" offset="95%"></stop>
        </linearGradient>
        <linearGradient x1="94.2174936%" y1="57.4482289%" x2="-98.0049794%" y2="45.1975477%" id="linearGradient-20">
            <stop stop-color="#FFFFFF" stop-opacity="0" offset="0%"></stop>
            <stop stop-color="#FFFFFF" offset="95%"></stop>
        </linearGradient>
        <linearGradient x1="43.1368489%" y1="8.30318922%" x2="70.3774889%" y2="140.435974%" id="linearGradient-21">
            <stop stop-color="#010101" stop-opacity="0" offset="0%"></stop>
            <stop stop-color="#010101" offset="95%"></stop>
        </linearGradient>
        <linearGradient x1="92.0648306%" y1="53.0269865%" x2="-100.139909%" y2="39.204866%" id="linearGradient-22">
            <stop stop-color="#FFFFFF" stop-opacity="0" offset="0%"></stop>
            <stop stop-color="#FFFFFF" offset="95%"></stop>
        </linearGradient>
    </defs>
    <g id="swapping" stroke="none" stroke-width="1" fill="none" fill-rule="evenodd">
        <g id="ethereum-(1)" transform="translate(32.000000, 24.000000)" fill-rule="nonzero">
            <path d="M131.02484,0.0686757991 C95.0816438,1.08164384 60.9411872,15.0657534 27.7235616,28.8395434 C17.9930594,32.8785388 7.40410959,37.7158904 3.06894977,47.3176256 C-3.97461187,62.9242009 9.47726027,80.3893151 8.57589041,97.4767123 C8.00931507,107.898265 2.11607306,117.319726 0.476438356,127.625388 C-2.42511416,145.760091 8.77762557,164.006393 24.2983562,173.805571 C39.8190868,183.604749 58.8165297,186.218721 77.1615525,186.205845 C95.5065753,186.192968 113.825845,183.785023 132.157991,184.48895 C152.876621,185.304475 173.741187,190.098904 194.146484,186.416164 C214.551781,182.733425 235.081553,166.757717 234.394795,146.034795 C233.965571,133.016438 225.381096,121.33726 224.857443,108.323196 C224.132055,89.9953425 236.875708,74.5647489 234.793973,55.7518721 C233.403288,43.1112329 227.278265,27.5347032 217.071324,19.2678539 C197.434338,3.39515982 154.481918,-0.592328767 131.02484,0.0686757991 Z" id="Path" fill="#07849F" opacity="0.24"></path>
            <polygon id="Path" fill="#07849F" points="139.570685 134.909315 112.345023 119.191142 133.647397 106.893881 118.371324 98.0733333 104.7821 105.919543 63.143105 81.8787215 87.8706849 67.6027397 88.8536073 68.1693151 65.1046575 81.8830137 104.773516 104.786393 118.36274 96.9401826 135.60895 106.898174 114.306575 119.195434 139.5621 133.776164 171.148676 115.54274 188.764018 125.71105 174.440822 133.982192 191.193425 143.656895 198.786393 139.274521 199.773607 139.841096 191.202009 144.790046 172.479269 133.9779 186.802466 125.71105 171.152968 116.67589"></polygon>
            <polygon id="Path" fill="#07849F" points="176.458174 166.173973 142.429315 146.528402 164.465662 133.80621 134.098082 116.27242 113.156256 127.084566 82.2650228 109.246027 96.403653 101.082192 82.1448402 92.8496804 71.8005479 98.8244749 70.8133333 98.2536073 82.1362557 91.7165297 98.3652055 101.086484 84.2265753 109.25032 113.20347 125.981461 134.145297 115.169315 166.427215 133.810502 144.390868 146.528402 177.436804 165.611689"></polygon>
            <polygon id="Path" fill="#07849F" points="42.3515068 109.104384 25.2254795 99.2193607 26.2041096 98.6527854 42.3429224 107.971233 56.3914155 99.8589041 134.003653 144.669863 151.910868 134.334155 172.419178 146.176438 183.776438 139.6179 184.759361 140.188767 172.427763 147.309589 151.91516 135.467306 134.007945 145.803014 56.4 100.992055"></polygon>
            <polygon id="Path" fill="#07849F" points="72.2812785 86.063653 71.2983562 85.4927854 85.2824658 77.4190868 108.842557 91.0211872 121.238539 83.8660274 163.585753 108.314612 162.607123 108.876895 121.247123 84.9991781 108.851142 92.1543379 85.2910502 78.5522374"></polygon>
            <path d="M113.143379,115.040548 C113.211992,115.406492 113.211992,115.782001 113.143379,116.147945 C112.868676,117.006393 111.722648,117.178082 110.808402,117.195251 C105.59332,117.292017 100.410315,118.034506 95.3778082,119.405753 C94.1716895,119.731963 92.879726,120.161187 92.1629224,121.191324 C91.4461187,122.221461 91.7637443,123.994155 92.987032,124.255982 C91.2324896,124.468868 89.5057647,124.868893 87.836347,125.449224 C87.389701,125.552415 86.9959904,125.814889 86.7289498,126.187489 C86.2010046,127.140365 87.4371689,128.097534 88.4758904,128.428037 C92.6350685,129.771507 97.0603653,129.823014 101.451324,129.865936 C103.528767,129.865936 105.97105,129.72 107.108493,127.977352 C107.464749,127.427945 107.662192,126.745479 108.164384,126.320548 C108.517275,126.061481 108.918702,125.876095 109.344749,125.775434 L115.937626,123.75379 C116.732185,123.459724 117.571366,123.304374 118.418539,123.294521 C119.397169,123.346027 120.307123,123.779543 121.217078,124.152968 C124.465704,125.446447 127.990641,125.88965 131.458356,125.440639 C132.278174,127.157534 133.175251,129.003196 134.789132,130.04621 C136.106849,130.904658 137.720731,131.1021 139.278813,131.290959 C142.712603,131.720183 146.206484,132.110776 149.580183,131.355342 C151.000913,131.037717 152.584749,130.265114 152.790776,128.822922 C153.018265,127.170411 151.30137,125.977169 149.816256,125.208858 L146.811689,123.642192 C146.243311,123.408037 145.748213,123.025596 145.378082,122.534795 C144.717078,121.466027 145.421005,120.041005 146.378174,119.221187 C147.145711,118.569089 148.060597,118.113855 149.043653,117.894886 C150.507306,117.568676 152.048219,117.791872 153.533333,117.727489 C155.018447,117.663105 156.662374,117.199543 157.482192,115.937626 C157.616066,115.762642 157.677537,115.542884 157.653881,115.323836 C157.580821,115.102027 157.427812,114.915356 157.224658,114.800183 C153.906758,112.478082 149.588767,112.306393 145.541187,112.22484 L126.904292,111.829954 C123.83105,111.765571 120.740639,111.795616 117.671689,111.636804 C115.298082,111.490868 112.963105,111.984475 113.143379,115.040548 Z" id="Path" fill="#07849F" opacity="0.24"></path>
            <ellipse id="Oval" fill="#F29C5A" transform="translate(101.052532, 118.595091) rotate(-89.690000) translate(-101.052532, -118.595091) " cx="101.052532" cy="118.595091" rx="3.85013699" ry="6.66584475"></ellipse>
            <ellipse id="Oval" fill="#FFC91F" transform="translate(101.052549, 117.386738) rotate(-89.690000) translate(-101.052549, -117.386738) " cx="101.052549" cy="117.386738" rx="3.85013699" ry="6.66584475"></ellipse>
            <ellipse id="Oval" fill="#F29C5A" transform="translate(101.022343, 117.291798) rotate(-89.690000) translate(-101.022343, -117.291798) " cx="101.022343" cy="117.291798" rx="2.98739726" ry="5.17643836"></ellipse>
            <ellipse id="Oval" fill="#F29C5A" transform="translate(99.360882, 116.268986) rotate(-89.690000) translate(-99.360882, -116.268986) " cx="99.360882" cy="116.268986" rx="3.85013699" ry="6.66584475"></ellipse>
            <ellipse id="Oval" fill="#FFC91F" transform="translate(99.360900, 115.060634) rotate(-89.690000) translate(-99.360900, -115.060634) " cx="99.3608997" cy="115.060634" rx="3.85013699" ry="6.66584475"></ellipse>
            <ellipse id="Oval" fill="#F29C5A" transform="translate(99.330693, 114.965670) rotate(-89.690000) translate(-99.330693, -114.965670) " cx="99.3306929" cy="114.96567" rx="2.98739726" ry="5.17643836"></ellipse>
            <ellipse id="Oval" fill="#F29C5A" transform="translate(102.118585, 112.609400) rotate(-89.690000) translate(-102.118585, -112.609400) " cx="102.118585" cy="112.6094" rx="3.85013699" ry="6.66584475"></ellipse>
            <ellipse id="Oval" fill="#FFC91F" transform="translate(102.114310, 111.405340) rotate(-89.690000) translate(-102.114310, -111.405340) " cx="102.11431" cy="111.40534" rx="3.85013699" ry="6.66584475"></ellipse>
            <ellipse id="Oval" fill="#F29C5A" transform="translate(102.088395, 111.310399) rotate(-89.690000) translate(-102.088395, -111.310399) " cx="102.088395" cy="111.310399" rx="2.98739726" ry="5.17643836"></ellipse>
            <ellipse id="Oval" fill="#F29C5A" transform="translate(152.345542, 114.345420) rotate(-89.427061) translate(-152.345542, -114.345420) " cx="152.345542" cy="114.34542" rx="3.85032949" ry="6.66617803"></ellipse>
            <ellipse id="Oval" fill="#FFC91F" transform="translate(151.618380, 112.601494) rotate(-89.690000) translate(-151.618380, -112.601494) " cx="151.61838" cy="112.601494" rx="3.85013699" ry="6.66584475"></ellipse>
            <ellipse id="Oval" fill="#F29C5A" transform="translate(151.588174, 112.506553) rotate(-89.690000) translate(-151.588174, -112.506553) " cx="151.588174" cy="112.506553" rx="2.98739726" ry="5.17643836"></ellipse>
            <ellipse id="Oval" fill="#F29C5A" transform="translate(155.172238, 111.726855) rotate(-89.427061) translate(-155.172238, -111.726855) " cx="155.172238" cy="111.726855" rx="3.85032949" ry="6.66617803"></ellipse>
            <ellipse id="Oval" fill="#FFC91F" transform="translate(154.432192, 109.999219) rotate(-89.690000) translate(-154.432192, -109.999219) " cx="154.432192" cy="109.999219" rx="3.85013699" ry="6.66584475"></ellipse>
            <ellipse id="Oval" fill="#F29C5A" transform="translate(154.406277, 109.904279) rotate(-89.690000) translate(-154.406277, -109.904279) " cx="154.406277" cy="109.904279" rx="2.98739726" ry="5.17643836"></ellipse>
            <ellipse id="Oval" fill="#F29C5A" transform="translate(152.718366, 107.530205) rotate(-89.427061) translate(-152.718366, -107.530205) " cx="152.718366" cy="107.530205" rx="3.85032949" ry="6.66617803"></ellipse>
            <ellipse id="Oval" fill="#FFC91F" transform="translate(151.989609, 105.821701) rotate(-89.690000) translate(-151.989609, -105.821701) " cx="151.989609" cy="105.821701" rx="3.85013699" ry="6.66584475"></ellipse>
            <ellipse id="Oval" fill="#F29C5A" transform="translate(151.959403, 105.726761) rotate(-89.690000) translate(-151.959403, -105.726761) " cx="151.959403" cy="105.726761" rx="2.98739726" ry="5.17643836"></ellipse>
            <ellipse id="Oval" fill="#F29C5A" transform="translate(106.926392, 97.431531) rotate(-89.690000) translate(-106.926392, -97.431531) " cx="106.926392" cy="97.4315311" rx="3.85013699" ry="6.66584475"></ellipse>
            <ellipse id="Oval" fill="#FFC91F" transform="translate(106.930702, 96.227494) rotate(-89.690000) translate(-106.930702, -96.227494) " cx="106.930702" cy="96.2274944" rx="3.85013699" ry="6.66584475"></ellipse>
            <ellipse id="Oval" fill="#F29C5A" transform="translate(106.900495, 96.132531) rotate(-89.690000) translate(-106.900495, -96.132531) " cx="106.900495" cy="96.1325306" rx="2.98739726" ry="5.17643836"></ellipse>
            <ellipse id="Oval" fill="#F29C5A" transform="translate(141.636220, 127.723163) rotate(-89.690000) translate(-141.636220, -127.723163) " cx="141.63622" cy="127.723163" rx="3.85013699" ry="6.66584475"></ellipse>
            <ellipse id="Oval" fill="#FFC91F" transform="translate(141.640530, 126.519126) rotate(-89.690000) translate(-141.640530, -126.519126) " cx="141.64053" cy="126.519126" rx="3.85013699" ry="6.66584475"></ellipse>
            <ellipse id="Oval" fill="#F29C5A" transform="translate(141.610323, 126.424162) rotate(-89.690000) translate(-141.610323, -126.424162) " cx="141.610323" cy="126.424162" rx="2.98739726" ry="5.17643836"></ellipse>
            <path d="M137.965388,118.890685 C132.836164,121.852329 124.492055,121.83516 119.328493,118.856347 C116.753151,117.366941 115.465479,115.422557 115.439726,113.469589 C115.439726,112.735616 115.645753,102.472877 115.572785,102.82484 C115.315251,104.112511 117.667397,109.018539 119.268402,108.095708 C124.397626,105.134064 132.741735,105.146941 137.905297,108.130046 C139.192968,108.881187 141.081553,102.49863 141.72968,103.408584 C141.72968,103.408584 141.609498,112.048858 141.72968,112.769954 C142.103105,114.971872 140.849772,117.221005 137.965388,118.890685 Z" id="Path" fill="#07849F"></path>
            <path d="M137.965388,118.890685 C132.836164,121.852329 124.492055,121.83516 119.328493,118.856347 C116.753151,117.366941 115.465479,115.422557 115.439726,113.469589 C115.439726,112.735616 115.645753,102.472877 115.572785,102.82484 C115.315251,104.112511 117.667397,109.018539 119.268402,108.095708 C124.397626,105.134064 132.741735,105.146941 137.905297,108.130046 C139.192968,108.881187 141.081553,102.49863 141.72968,103.408584 C141.72968,103.408584 141.609498,112.048858 141.72968,112.769954 C142.103105,114.971872 140.849772,117.221005 137.965388,118.890685 Z" id="Path" fill="url(#linearGradient-1)"></path>
            <ellipse id="Oval" fill="#07849F" transform="translate(128.616408, 103.775785) rotate(-89.690000) translate(-128.616408, -103.775785) " cx="128.616408" cy="103.775785" rx="7.61013699" ry="13.1771689"></ellipse>
            <path d="M141.785479,109.460639 C141.905662,111.486575 140.630868,113.542557 137.961096,115.087763 C132.810411,118.045114 124.487763,118.027945 119.324201,115.057717 C116.624384,113.499635 115.336712,111.443653 115.461187,109.400548 C115.624292,111.233333 116.916256,113.031781 119.324201,114.413881 C124.474886,117.418447 132.82758,117.418447 137.961096,114.456804 C140.34758,113.061826 141.635251,111.276256 141.785479,109.460639 Z" id="Path" fill="#07849F"></path>
            <ellipse id="Oval" fill="url(#linearGradient-2)" transform="translate(128.698403, 103.667876) rotate(-89.690000) translate(-128.698403, -103.667876) " cx="128.698403" cy="103.667876" rx="5.86748858" ry="10.1640183"></ellipse>
            <polygon id="Path" fill="#07849F" points="129.054703 50.5153425 115.431142 75.543379 122.822374 75.543379"></polygon>
            <polygon id="Path" fill="#07849F" points="128.810046 100.150776 115.431142 75.543379 122.822374 75.543379"></polygon>
            <polygon id="Path" fill="#07849F" points="142.467945 75.6506849 129.054703 50.5153425 122.822374 75.543379"></polygon>
            <polygon id="Path" fill="#07849F" points="128.810046 100.150776 142.467945 75.6506849 122.822374 75.543379"></polygon>
            <polygon id="Path" fill="url(#linearGradient-3)" points="129.054703 50.5153425 115.431142 75.543379 122.822374 75.543379"></polygon>
            <polygon id="Path" fill="url(#linearGradient-4)" points="128.810046 100.150776 115.431142 75.543379 122.822374 75.543379"></polygon>
            <polygon id="Path" fill="url(#linearGradient-5)" points="142.467945 75.6506849 129.054703 50.5153425 122.822374 75.543379"></polygon>
            <polygon id="Path" fill="url(#linearGradient-6)" points="128.810046 100.150776 142.467945 75.6506849 122.822374 75.543379"></polygon>
            <path d="M115.572785,102.82484 L93.0428311,39.7289498 L161.903196,35.0976256 L141.635251,106.490411 C141.635251,106.490411 124.165845,118.809132 115.572785,102.82484 Z" id="Path" fill="url(#linearGradient-7)"></path>
            <path d="M191.811507,136.892329 L181.510137,107.992694 L213.049498,105.846575 L203.743927,138.566301 C203.743927,138.566301 195.747489,144.210594 191.811507,136.892329 Z" id="Path" fill="url(#linearGradient-8)"></path>
            <path d="M168.29863,159.842922 L157.975799,130.956164 L189.519452,128.810046 L180.23105,161.512603 C180.23105,161.512603 172.23032,167.165479 168.29863,159.842922 Z" id="Path" fill="url(#linearGradient-9)"></path>
            <path d="M64.2977169,94.5494064 L53.996347,65.6540639 L85.5357078,63.5079452 L76.2473059,96.2105023 C76.2473059,96.2105023 68.2379909,101.871963 64.2977169,94.5494064 Z" id="Path" fill="url(#linearGradient-10)"></path>
            <path d="M83.9389954,64.1603653 L73.6161644,35.2607306 L105.159817,33.1146119 L95.8714155,65.8171689 C95.8714155,65.8171689 87.8706849,71.4786301 83.9389954,64.1603653 Z" id="Path" fill="url(#linearGradient-11)"></path>
            <path d="M18.7442009,94.7854795 L8.44283105,65.890137 L39.986484,63.7440183 L30.676621,96.4637443 C30.676621,96.4637443 22.6758904,102.108037 18.7442009,94.7854795 Z" id="Path" fill="url(#linearGradient-12)"></path>
            <path d="M202.75242,144.232055 C200.365936,145.609863 196.481461,145.601279 194.0821,144.232055 C192.880274,143.541005 192.279361,142.63105 192.275068,141.725388 C192.275068,141.386301 192.369498,136.613333 192.33516,136.776438 C192.214977,137.377352 193.309498,139.65653 194.052055,139.227306 C196.438539,137.849498 200.318721,137.858082 202.718082,139.227306 C203.323288,139.574977 204.194612,136.609041 204.499361,137.038265 C204.499361,137.038265 204.439269,141.055799 204.499361,141.390594 C204.675342,142.407854 204.091598,143.45516 202.75242,144.232055 Z" id="Path" fill="#07849F"></path>
            <path d="M202.75242,144.232055 C200.365936,145.609863 196.481461,145.601279 194.0821,144.232055 C192.880274,143.541005 192.279361,142.63105 192.275068,141.725388 C192.275068,141.386301 192.369498,136.613333 192.33516,136.776438 C192.214977,137.377352 193.309498,139.65653 194.052055,139.227306 C196.438539,137.849498 200.318721,137.858082 202.718082,139.227306 C203.323288,139.574977 204.194612,136.609041 204.499361,137.038265 C204.499361,137.038265 204.439269,141.055799 204.499361,141.390594 C204.675342,142.407854 204.091598,143.45516 202.75242,144.232055 Z" id="Path" fill="url(#linearGradient-13)"></path>
            <ellipse id="Oval" fill="#07849F" transform="translate(198.398983, 137.196731) rotate(-89.690000) translate(-198.398983, -137.196731) " cx="198.398983" cy="137.196731" rx="3.54109589" ry="6.12931507"></ellipse>
            <path d="M204.529406,139.845388 C204.585205,140.78968 203.992877,141.742557 202.748128,142.463653 C200.361644,143.837169 196.481461,143.828584 194.0821,142.463653 C192.824475,141.733973 192.223562,140.781096 192.279361,139.832511 C192.356621,140.690959 192.957534,141.519361 194.0821,142.163196 C196.481461,143.549589 200.361644,143.558174 202.748128,142.163196 C203.872694,141.519361 204.460731,140.690959 204.529406,139.845388 Z" id="Path" fill="#07849F"></path>
            <ellipse id="Oval" fill="url(#linearGradient-14)" transform="translate(198.437823, 137.144946) rotate(-89.690000) translate(-198.437823, -137.144946) " cx="198.437823" cy="137.144946" rx="2.72986301" ry="4.72575342"></ellipse>
            <path d="M178.569954,167.414429 C176.18347,168.792237 172.303288,168.783653 169.899635,167.414429 C168.7021,166.719087 168.096895,165.813425 168.092603,164.907763 C168.092603,164.568676 168.187032,159.795708 168.156986,159.958813 C168.036804,160.559726 169.131324,162.838904 169.873881,162.40968 C172.260365,161.031872 176.140548,161.040457 178.544201,162.40968 C179.149406,162.757352 180.020731,159.787123 180.321187,160.220639 C180.321187,160.220639 180.265388,164.238174 180.321187,164.572968 C180.497169,165.590228 179.913425,166.637534 178.569954,167.414429 Z" id="Path" fill="#07849F"></path>
            <path d="M178.569954,167.414429 C176.18347,168.792237 172.303288,168.783653 169.899635,167.414429 C168.7021,166.719087 168.096895,165.813425 168.092603,164.907763 C168.092603,164.568676 168.187032,159.795708 168.156986,159.958813 C168.036804,160.559726 169.131324,162.838904 169.873881,162.40968 C172.260365,161.031872 176.140548,161.040457 178.544201,162.40968 C179.149406,162.757352 180.020731,159.787123 180.321187,160.220639 C180.321187,160.220639 180.265388,164.238174 180.321187,164.572968 C180.497169,165.590228 179.913425,166.637534 178.569954,167.414429 Z" id="Path" fill="url(#linearGradient-15)"></path>
            <ellipse id="Oval" fill="#07849F" transform="translate(174.218398, 160.383997) rotate(-89.690000) translate(-174.218398, -160.383997) " cx="174.218398" cy="160.383997" rx="3.54109589" ry="6.12931507"></ellipse>
            <path d="M180.346941,163.027763 C180.40274,163.967763 179.810411,164.924932 178.569954,165.646027 C176.18347,167.019543 172.303288,167.010959 169.899635,165.646027 C168.646301,164.920639 168.045388,163.967763 168.101187,163.014886 C168.178447,163.873333 168.779361,164.706027 169.899635,165.349863 C172.303288,166.736256 176.18347,166.74484 178.569954,165.349863 C179.677352,164.701735 180.265388,163.873333 180.346941,163.027763 Z" id="Path" fill="#07849F"></path>
            <ellipse id="Oval" fill="url(#linearGradient-16)" transform="translate(174.257238, 160.332212) rotate(-89.690000) translate(-174.257238, -160.332212) " cx="174.257238" cy="160.332212" rx="2.72986301" ry="4.72575342"></ellipse>
            <path d="M94.8884932,69.4612785 C92.5020091,70.8390868 88.6218265,70.8305023 86.2224658,69.4612785 C85.0206393,68.7702283 84.4154338,67.860274 84.4111416,66.9546119 C84.4111416,66.6155251 84.509863,61.8425571 84.4755251,62.0056621 C84.3553425,62.6065753 85.449863,64.8857534 86.1924201,64.4565297 C88.5789041,63.0787215 92.4590868,63.0873059 94.8627397,64.4565297 C95.4679452,64.8042009 96.3392694,61.8382648 96.639726,62.2674886 C96.639726,62.2674886 96.5839269,66.2850228 96.639726,66.6198174 C96.8157078,67.6370776 96.2319635,68.6843836 94.8884932,69.4612785 Z" id="Path" fill="#07849F"></path>
            <path d="M94.8884932,69.4612785 C92.5020091,70.8390868 88.6218265,70.8305023 86.2224658,69.4612785 C85.0206393,68.7702283 84.4154338,67.860274 84.4111416,66.9546119 C84.4111416,66.6155251 84.509863,61.8425571 84.4755251,62.0056621 C84.3553425,62.6065753 85.449863,64.8857534 86.1924201,64.4565297 C88.5789041,63.0787215 92.4590868,63.0873059 94.8627397,64.4565297 C95.4679452,64.8042009 96.3392694,61.8382648 96.639726,62.2674886 C96.639726,62.2674886 96.5839269,66.2850228 96.639726,66.6198174 C96.8157078,67.6370776 96.2319635,68.6843836 94.8884932,69.4612785 Z" id="Path" fill="url(#linearGradient-17)"></path>
            <ellipse id="Oval" fill="#07849F" transform="translate(90.540590, 62.431884) rotate(-89.690000) translate(-90.540590, -62.431884) " cx="90.54059" cy="62.4318841" rx="3.54109589" ry="6.12931507"></ellipse>
            <path d="M96.6654795,65.0746119 C96.7212785,66.0189041 96.1289498,66.9717808 94.8884932,67.6928767 C92.5020091,69.0663927 88.6218265,69.0578082 86.2181735,67.6928767 C84.9648402,66.9631963 84.3639269,66.0103196 84.419726,65.0617352 C84.4969863,65.9201826 85.0978995,66.7485845 86.2181735,67.3924201 C88.6218265,68.7788128 92.5020091,68.7873973 94.8884932,67.4138813 C95.9958904,66.7485845 96.5968037,65.9201826 96.6654795,65.0746119 Z" id="Path" fill="#07849F"></path>
            <ellipse id="Oval" fill="url(#linearGradient-18)" transform="translate(90.579430, 62.380099) rotate(-89.690000) translate(-90.579430, -62.380099) " cx="90.5794299" cy="62.3800992" rx="2.72986301" ry="4.72575342"></ellipse>
            <path d="M75.036895,101.142283 C72.650411,102.520091 68.7659361,102.511507 66.3665753,101.142283 C65.1647489,100.451233 64.5638356,99.5455708 64.5552511,98.6399087 C64.5552511,98.2965297 64.6539726,93.5235616 64.6196347,93.6866667 C64.4994521,94.2875799 65.5939726,96.5710502 66.3365297,96.1375342 C68.7230137,94.759726 72.6031963,94.7683105 75.0025571,96.1375342 C75.6077626,96.4852055 76.4790868,93.5192694 76.7838356,93.9484932 C76.7838356,93.9484932 76.7237443,97.9703196 76.7838356,98.3051142 C76.9598174,99.3180822 76.393242,100.36968 75.036895,101.142283 Z" id="Path" fill="#07849F"></path>
            <path d="M75.036895,101.142283 C72.650411,102.520091 68.7659361,102.511507 66.3665753,101.142283 C65.1647489,100.451233 64.5638356,99.5455708 64.5552511,98.6399087 C64.5552511,98.2965297 64.6539726,93.5235616 64.6196347,93.6866667 C64.4994521,94.2875799 65.5939726,96.5710502 66.3365297,96.1375342 C68.7230137,94.759726 72.6031963,94.7683105 75.0025571,96.1375342 C75.6077626,96.4852055 76.4790868,93.5192694 76.7838356,93.9484932 C76.7838356,93.9484932 76.7237443,97.9703196 76.7838356,98.3051142 C76.9598174,99.3180822 76.393242,100.36968 75.036895,101.142283 Z" id="Path" fill="url(#linearGradient-19)"></path>
            <ellipse id="Oval" fill="#07849F" transform="translate(70.684135, 94.112319) rotate(-89.690000) translate(-70.684135, -94.112319) " cx="70.6841349" cy="94.1123185" rx="3.54109589" ry="6.12931507"></ellipse>
            <path d="M76.8224658,96.7556164 C76.8782648,97.6999087 76.2859361,98.6570776 75.0411872,99.3738813 C72.6547032,100.747397 68.7745205,100.743105 66.3751598,99.3738813 C65.1175342,98.6484932 64.516621,97.6913242 64.5724201,96.7427397 C64.6496804,97.6011872 65.2505936,98.429589 66.3751598,99.0734247 C68.7745205,100.46411 72.6547032,100.468402 75.0411872,99.0948858 C76.1442922,98.4338813 76.7409132,97.6011872 76.8224658,96.7556164 Z" id="Path" fill="#07849F"></path>
            <ellipse id="Oval" fill="url(#linearGradient-20)" transform="translate(70.722975, 94.060534) rotate(-89.690000) translate(-70.722975, -94.060534) " cx="70.7229747" cy="94.0605336" rx="2.72986301" ry="4.72575342"></ellipse>
            <path d="M29.410411,102.408493 C27.0282192,103.786301 23.1437443,103.782009 20.7443836,102.408493 C19.5425571,101.713151 18.9416438,100.807489 18.9330594,99.9018265 C18.9330594,99.5627397 19.0317808,94.7897717 18.9974429,94.9528767 C18.8772603,95.55379 19.9717808,97.832968 20.7143379,97.4037443 C23.1008219,96.0259361 26.9852968,96.0302283 29.3846575,97.4037443 C29.989863,97.7557078 30.8611872,94.7854795 31.1659361,95.2189954 C31.1659361,95.2189954 31.1058447,99.2365297 31.1659361,99.5713242 C31.3247489,100.588584 30.7538813,101.63589 29.410411,102.408493 Z" id="Path" fill="#07849F"></path>
            <path d="M29.410411,102.408493 C27.0282192,103.786301 23.1437443,103.782009 20.7443836,102.408493 C19.5425571,101.713151 18.9416438,100.807489 18.9330594,99.9018265 C18.9330594,99.5627397 19.0317808,94.7897717 18.9974429,94.9528767 C18.8772603,95.55379 19.9717808,97.832968 20.7143379,97.4037443 C23.1008219,96.0259361 26.9852968,96.0302283 29.3846575,97.4037443 C29.989863,97.7557078 30.8611872,94.7854795 31.1659361,95.2189954 C31.1659361,95.2189954 31.1058447,99.2365297 31.1659361,99.5713242 C31.3247489,100.588584 30.7538813,101.63589 29.410411,102.408493 Z" id="Path" fill="url(#linearGradient-21)"></path>
            <ellipse id="Oval" fill="#07849F" transform="translate(25.064012, 95.380443) rotate(-89.690000) translate(-25.064012, -95.380443) " cx="25.0640124" cy="95.3804426" rx="3.54109589" ry="6.12931507"></ellipse>
            <path d="M31.1916895,98.0261187 C31.2474886,98.9661187 30.6508676,99.9232877 29.410411,100.640091 C27.0239269,102.0179 23.1437443,102.009315 20.7443836,100.640091 C19.486758,99.9147032 18.8858447,98.9575342 18.9416438,98.0089498 C19.0189041,98.8673973 19.6198174,99.7000913 20.7443836,100.339635 C23.1437443,101.73032 27.0239269,101.734612 29.410411,100.361096 C30.5221005,99.7000913 31.1187215,98.8673973 31.1916895,98.0261187 Z" id="Path" fill="#07849F"></path>
            <ellipse id="Oval" fill="url(#linearGradient-22)" transform="translate(25.098583, 95.324342) rotate(-89.690000) translate(-25.098583, -95.324342) " cx="25.0985834" cy="95.3243422" rx="2.72986301" ry="4.72575342"></ellipse>
        </g>
    </g>
</svg>