<?xml version="1.0" encoding="UTF-8"?>
<svg width="300px" height="236px" viewBox="0 0 300 236" version="1.1" xmlns="http://www.w3.org/2000/svg" xmlns:xlink="http://www.w3.org/1999/xlink">
    <!-- Generator: Sketch 59.1 (86144) - https://sketch.com -->
    <title>swapped</title>
    <desc>Created with Sketch.</desc>
    <defs>
        <linearGradient x1="64.0146172%" y1="71.0782933%" x2="12.416108%" y2="-7.23239437%" id="linearGradient-1">
            <stop stop-color="#000000" stop-opacity="0" offset="0%"></stop>
            <stop stop-color="#000000" offset="95%"></stop>
        </linearGradient>
        <linearGradient x1="426.006727%" y1="624.260786%" x2="523.397498%" y2="624.260786%" id="linearGradient-2">
            <stop stop-color="#000000" stop-opacity="0" offset="0%"></stop>
            <stop stop-color="#000000" offset="95%"></stop>
        </linearGradient>
        <linearGradient x1="58.1508423%" y1="53.6844078%" x2="32.2198949%" y2="31.3101626%" id="linearGradient-3">
            <stop stop-color="#FFFFFF" stop-opacity="0" offset="2%"></stop>
            <stop stop-color="#FFFFFF" stop-opacity="0.39" offset="32%"></stop>
            <stop stop-color="#FFFFFF" stop-opacity="0.68" offset="68%"></stop>
            <stop stop-color="#FFFFFF" offset="100%"></stop>
        </linearGradient>
        <linearGradient x1="275.20353%" y1="175.827684%" x2="214.872794%" y2="243.50318%" id="linearGradient-4">
            <stop stop-color="#FFFFFF" stop-opacity="0" offset="2%"></stop>
            <stop stop-color="#FFFFFF" stop-opacity="0.39" offset="32%"></stop>
            <stop stop-color="#FFFFFF" stop-opacity="0.68" offset="68%"></stop>
            <stop stop-color="#FFFFFF" offset="100%"></stop>
        </linearGradient>
        <linearGradient x1="6.83082807e-15%" y1="50.0015252%" x2="100%" y2="50.0015252%" id="linearGradient-5">
            <stop stop-color="#FFFFFF" stop-opacity="0" offset="2%"></stop>
            <stop stop-color="#FFFFFF" stop-opacity="0.39" offset="32%"></stop>
            <stop stop-color="#FFFFFF" stop-opacity="0.68" offset="68%"></stop>
            <stop stop-color="#FFFFFF" offset="100%"></stop>
        </linearGradient>
        <linearGradient x1="59.6491736%" y1="73.7308568%" x2="33.3582427%" y2="2.25817389%" id="linearGradient-6">
            <stop stop-color="#FFFFFF" stop-opacity="0" offset="2%"></stop>
            <stop stop-color="#FFFFFF" stop-opacity="0.39" offset="32%"></stop>
            <stop stop-color="#FFFFFF" stop-opacity="0.68" offset="68%"></stop>
            <stop stop-color="#FFFFFF" offset="100%"></stop>
        </linearGradient>
        <linearGradient x1="91.0578662%" y1="160.320072%" x2="26.5804702%" y2="-84.0506329%" id="linearGradient-7">
            <stop stop-color="#FFFFFF" stop-opacity="0" offset="2%"></stop>
            <stop stop-color="#FFFFFF" stop-opacity="0.39" offset="32%"></stop>
            <stop stop-color="#FFFFFF" stop-opacity="0.68" offset="68%"></stop>
            <stop stop-color="#FFFFFF" offset="100%"></stop>
        </linearGradient>
        <linearGradient x1="93.275974%" y1="160.020563%" x2="28.8160173%" y2="-84.4058442%" id="linearGradient-8">
            <stop stop-color="#FFFFFF" stop-opacity="0" offset="2%"></stop>
            <stop stop-color="#FFFFFF" stop-opacity="0.39" offset="32%"></stop>
            <stop stop-color="#FFFFFF" stop-opacity="0.68" offset="68%"></stop>
            <stop stop-color="#FFFFFF" offset="100%"></stop>
        </linearGradient>
        <linearGradient x1="58.8877142%" y1="58.7682323%" x2="30.7764914%" y2="25.8314452%" id="linearGradient-9">
            <stop stop-color="#FFFFFF" stop-opacity="0" offset="2%"></stop>
            <stop stop-color="#FFFFFF" stop-opacity="0.39" offset="32%"></stop>
            <stop stop-color="#FFFFFF" stop-opacity="0.68" offset="68%"></stop>
            <stop stop-color="#FFFFFF" offset="100%"></stop>
        </linearGradient>
        <linearGradient x1="40.742523%" y1="62.3567091%" x2="89.58694%" y2="27.3591943%" id="linearGradient-10">
            <stop stop-color="#FFFFFF" stop-opacity="0" offset="2%"></stop>
            <stop stop-color="#FFFFFF" stop-opacity="0.39" offset="32%"></stop>
            <stop stop-color="#FFFFFF" stop-opacity="0.68" offset="66%"></stop>
            <stop stop-color="#FFFFFF" offset="100%"></stop>
        </linearGradient>
    </defs>
    <g id="swapped" stroke="none" stroke-width="1" fill="none" fill-rule="evenodd">
        <rect id="Rectangle" fill="#FFFFFF" x="0" y="0" width="300" height="236"></rect>
        <g id="rocket_launch_-(1)" transform="translate(40.000000, 24.000000)" fill-rule="nonzero">
            <path d="M200.500248,182.155652 C196.921242,192.413913 171.803975,185.781366 164.377391,185.279255 C157.406211,184.808282 150.431139,184.457971 143.452174,184.228323 C124.301863,183.586087 105.110683,183.825466 85.9837267,184.94646 C81.4491511,185.207246 76.9165217,185.52058 72.3858385,185.88646 C63.3595031,186.604596 54.2163975,187.527081 45.2893168,186.195901 C44.5828571,186.090807 43.870559,185.974037 43.1582609,185.833913 C35.0252174,184.275031 26.9914286,180.32236 21.9878261,173.882484 C21.0720918,172.706657 20.2650105,171.450111 19.5765217,170.128323 C14.8122981,160.932671 16.4178882,149.833665 14.1817391,139.727205 C12.1849689,130.70087 7.17552795,122.655404 4.09863354,113.932671 C-1.63258269,97.7115006 -0.43345221,79.8463565 7.41415773,64.5366139 C15.2617677,49.2268713 29.0657129,37.8228201 45.5812422,33.0050932 C60.9014907,28.5269565 77.5120497,30.0099379 92.7563975,25.3099379 C108.847329,20.335528 122.246708,8.83950311 138.197516,3.41552795 C152.263695,-1.30941603 167.522298,-1.08487333 181.443354,4.05192547 C197.668571,10.0947826 212.346584,26.915528 207.161988,43.4385093 C205.013416,50.2695652 199.729565,56.090559 199.028944,63.2193789 C197.668571,77.1267081 213.718634,86.9704348 215.902236,100.772671 C218.366087,116.355652 203.145093,128.15528 193.64,140.748944 C191.018509,144.21118 188.712298,148.093789 188.023354,152.379255 C186.207578,163.723478 203.174286,174.507205 200.500248,182.155652 Z" id="Path" fill="#07849F" opacity="0.24"></path>
            <path d="M114.031925,71.9129193 C114.031925,71.9129193 119.934658,73.4426087 119.286584,75.0832298 C118.638509,76.7238509 115.923602,78.3995031 112.151925,80.3378882 L112.286211,82.2120497 C112.286211,82.2120497 122.252547,79.1935404 123.431925,75.1240994 C124.114836,72.7142958 123.63561,70.123884 122.135776,68.1178882 L114.031925,71.9129193 Z" id="Path" fill="#07849F"></path>
            <path d="M114.031925,71.9129193 C114.031925,71.9129193 119.934658,73.4426087 119.286584,75.0832298 C118.638509,76.7238509 115.923602,78.3995031 112.151925,80.3378882 L112.286211,82.2120497 C112.286211,82.2120497 122.252547,79.1935404 123.431925,75.1240994 C124.114836,72.7142958 123.63561,70.123884 122.135776,68.1178882 L114.031925,71.9129193 Z" id="Path" fill="url(#linearGradient-1)"></path>
            <path d="M112.490559,65.6423602 C112.490559,65.6423602 108.461988,68.024472 107.819752,68.5616149 C107.177516,69.0987578 107.189193,70.8503106 108.713043,72.6952795 C111.007578,75.4627329 112.905093,74.7562733 112.905093,74.7562733 L116.787702,70.7277019 L112.490559,65.6423602 Z" id="Path" fill="#07849F"></path>
            <path d="M112.490559,65.6423602 C112.490559,65.6423602 108.461988,68.024472 107.819752,68.5616149 C107.177516,69.0987578 107.189193,70.8503106 108.713043,72.6952795 C111.007578,75.4627329 112.905093,74.7562733 112.905093,74.7562733 L116.787702,70.7277019 L112.490559,65.6423602 Z" id="Path" fill="url(#linearGradient-2)"></path>
            <path d="M109.296894,68.1762733 C112.957946,62.0284403 117.830565,56.6890194 123.618758,52.4823602 C133.380745,45.3068323 147.801863,39.9879503 152.612795,41.5059627 C157.423727,43.0239752 151.322484,54.4382609 131.302236,65.3796273 C130.876025,65.6073292 128.003478,67.1895652 127.559752,67.382236 L113.634907,73.2207453 C113.634907,73.2207453 111.019255,73.0922981 109.296894,68.1762733 Z" id="Path" fill="#07849F"></path>
            <path d="M109.296894,68.1762733 C112.957946,62.0284403 117.830565,56.6890194 123.618758,52.4823602 C133.380745,45.3068323 147.801863,39.9879503 152.612795,41.5059627 C157.423727,43.0239752 151.322484,54.4382609 131.302236,65.3796273 C130.876025,65.6073292 128.003478,67.1895652 127.559752,67.382236 L113.634907,73.2207453 C113.634907,73.2207453 111.019255,73.0922981 109.296894,68.1762733 Z" id="Path" fill="url(#linearGradient-3)"></path>
            <path d="M117.412422,57.8362733 C117.412422,57.8362733 113.086087,53.5449689 108.234286,55.6701863 C103.382484,57.7954037 96.4171429,68.1587578 96.4171429,68.1587578 L98.8226087,68.2930435 C98.8226087,68.2930435 106.850559,60.6679503 108.298509,61.2868323 C109.74646,61.9057143 109.86323,67.1662112 109.86323,67.1662112 C109.86323,67.1662112 113.220373,66.7341615 115.608323,62.8165217 C117.996273,58.898882 117.412422,57.8362733 117.412422,57.8362733 Z" id="Path" fill="#07849F"></path>
            <path d="M117.412422,57.8362733 C117.412422,57.8362733 113.086087,53.5449689 108.234286,55.6701863 C103.382484,57.7954037 96.4171429,68.1587578 96.4171429,68.1587578 L98.8226087,68.2930435 C98.8226087,68.2930435 106.850559,60.6679503 108.298509,61.2868323 C109.74646,61.9057143 109.86323,67.1662112 109.86323,67.1662112 C109.86323,67.1662112 113.220373,66.7341615 115.608323,62.8165217 C117.996273,58.898882 117.412422,57.8362733 117.412422,57.8362733 Z" id="Path" fill="url(#linearGradient-4)"></path>
            <path d="M143.452174,184.222484 C124.301863,183.580248 105.110683,183.819627 85.9837267,184.940621 C81.4491511,185.201408 76.9165217,185.514741 72.3858385,185.880621 C63.3595031,186.598758 54.2163975,187.521242 45.2893168,186.190062 C44.5828571,186.084969 43.870559,185.968199 43.1582609,185.828075 C35.0252174,184.269193 26.9914286,180.316522 21.9878261,173.876646 C24.416646,146.400621 40.1163975,128.66323 46.8598758,119.794534 C58.1865839,104.918012 103.849565,69.7760248 108.508696,68.4506832 L108.508696,68.4506832 C113.126957,67.1486957 111.982609,69.0345342 111.982609,69.0345342 L112.899255,74.7562733 L112.899255,74.7562733 C111.988447,75.3809938 40.2681988,124.926584 73.664472,155.859006 C91.2325466,172.130932 118.784472,180.228944 143.452174,184.222484 Z" id="Path" fill="url(#linearGradient-5)"></path>
            <path d="M50.9234783,141.519627 C42.0898137,163.215528 60.0432298,175.93764 85.9837267,184.94646 C81.4491511,185.207246 76.9165217,185.52058 72.3858385,185.88646 C63.3595031,186.604596 54.2163975,187.527081 45.2893168,186.195901 C40.3849689,175.225342 38.2831056,165.177267 38.5691925,158.065963 C40.0463354,118.907081 107.463602,69.227205 108.508696,68.4565217 L108.508696,68.4565217 L112.899255,74.7445963 L112.899255,74.7445963 C112.13441,75.0014907 72.2865839,89.013913 50.9234783,141.519627 Z" id="Path" fill="url(#linearGradient-6)"></path>
            <circle id="Oval" fill="url(#linearGradient-7)" cx="142.704845" cy="51.104472" r="3.22869565"></circle>
            <circle id="Oval" fill="url(#linearGradient-8)" cx="142.704845" cy="51.104472" r="2.6973913"></circle>
            <path d="M166.829565,95.6522981 C160.991056,92.9373913 154.206708,92.0674534 148.052919,93.9007453 C141.89913,95.7340373 136.539379,100.509938 134.57764,106.628696 C134.034658,108.321863 133.725217,110.131801 132.680124,111.591429 C131.331429,113.448075 129.031056,114.312174 127.238634,115.754286 C121.657019,120.244099 122.63205,129.848447 127.968447,134.630186 C133.304845,139.411925 141.350311,140.013292 148.274783,138.18 C155.53205,146.32472 167.699503,149.705217 178.121242,146.470683 C180.153043,149.547578 184.601988,150.213168 188.075901,148.969565 C191.549814,147.725963 194.276398,145.03441 196.880373,142.418758 L204.826584,134.449193 C209.269689,129.99441 213.759503,125.469565 216.90646,120.022236 C220.053416,114.574907 221.734907,107.994907 220.129317,101.922857 C218.60565,96.1697752 214.351094,91.5333954 208.749821,89.522114 C203.148548,87.5108327 196.916467,88.3817149 192.081118,91.8514286 C191.065217,85.3414907 185.658758,84.4190062 179.464099,85.7093168 C177.922733,86.0245963 164.377391,94.5079503 166.829565,95.6522981 Z" id="Path" fill="url(#linearGradient-9)"></path>
            <path d="M38.8085714,62.8165217 C41.7920497,61.1759006 45.2309317,60.0023602 48.582236,60.6854658 C51.9335404,61.3685714 54.9286957,64.4162733 54.5959006,67.8084472 C57.6450722,67.4882557 60.504388,69.339025 61.4608318,72.2519591 C62.4172756,75.1648931 61.211584,78.3503824 58.566087,79.9 C62.1275776,82.5681988 61.9874534,88.4300621 59.0565217,91.775528 C56.1255901,95.1209938 51.3029814,96.2419876 46.8657143,95.9150311 C42.4284472,95.5880745 38.195528,94.0175155 33.9159006,92.8031056 C32.7716217,92.386637 31.5419624,92.2602609 30.3368944,92.4352795 C29.0290683,92.738882 28.0014907,93.6963975 26.927205,94.5196273 C22.0412419,98.2706673 15.7663018,99.7131578 9.73279503,98.4722981 C7.80197348,98.1336286 5.99170193,97.3009037 4.47813665,96.0551553 C2.44049689,94.2277019 1.51217391,91.4427329 1.20273292,88.7219876 C0.367826087,81.3946584 4.12198758,73.3375155 11.0055901,70.6226087 C11.0055901,70.6226087 11.9280745,66.7983851 12.1732919,66.3546584 C12.9413448,64.8957118 14.0122965,63.617736 15.3144099,62.6063354 C17.6498137,60.790559 20.68,59.8330435 23.4532919,58.933913 C28.8363975,57.1706832 37.267205,54.7009938 38.8085714,62.8165217 Z" id="Path" fill="url(#linearGradient-10)"></path>
        </g>
    </g>
</svg>