<?xml version="1.0" encoding="UTF-8"?>
<svg width="33px" height="33px" viewBox="0 0 33 33" version="1.1" xmlns="http://www.w3.org/2000/svg" xmlns:xlink="http://www.w3.org/1999/xlink">
    <!-- Generator: Sketch 59.1 (86144) - https://sketch.com -->
    <title>Group 2</title>
    <desc>Created with Sketch.</desc>
    <defs>
        <filter x="-48.0%" y="-46.2%" width="196.0%" height="192.3%" filterUnits="objectBoundingBox" id="filter-1">
            <feOffset dx="0" dy="2" in="SourceAlpha" result="shadowOffsetOuter1"></feOffset>
            <feGaussianBlur stdDeviation="2" in="shadowOffsetOuter1" result="shadowBlurOuter1"></feGaussianBlur>
            <feColorMatrix values="0 0 0 0 0   0 0 0 0 0   0 0 0 0 0  0 0 0 0.06 0" type="matrix" in="shadowBlurOuter1" result="shadowMatrixOuter1"></feColorMatrix>
            <feMerge>
                <feMergeNode in="shadowMatrixOuter1"></feMergeNode>
                <feMergeNode in="SourceGraphic"></feMergeNode>
            </feMerge>
        </filter>
    </defs>
    <g id="Master" stroke="none" stroke-width="1" fill="none" fill-rule="evenodd" opacity="0.6">
        <g id="Primary" transform="translate(-9.000000, -18.000000)" fill="#FFFFFF">
            <g id="Group-4">
                <g id="Group-5" filter="url(#filter-1)" transform="translate(13.000000, 20.000000)">
                    <g id="Group-2">
                        <g id="Group" transform="translate(7.000000, 0.000000)">
                            <path d="M16.2748334,-1.42108547e-14 C16.7933916,-1.25748458e-14 17.2137661,0.420374488 17.2137661,0.938932698 L17.2137661,16.2748334 C17.2137661,16.7933916 16.7933916,17.2137661 16.2748334,17.2137661 L0.938932698,17.2137661 C0.420374488,17.2137661 -1.19637524e-14,16.7933916 -1.42108547e-14,16.2748334 L-1.42108547e-14,0.938932698 C-1.43853821e-14,0.420374488 0.420374488,-1.40045748e-14 0.938932698,-1.42108547e-14 L16.2748334,-1.42108547e-14 Z M13.8339905,3.12977566 L3.37977566,3.12977566 C3.24170447,3.12977566 3.12977566,3.24170447 3.12977566,3.37977566 L3.12977566,3.37977566 L3.12977566,13.8339905 C3.12977566,13.9720617 3.24170447,14.0839905 3.37977566,14.0839905 L3.37977566,14.0839905 L13.8339905,14.0839905 C13.9720617,14.0839905 14.0839905,13.9720617 14.0839905,13.8339905 L14.0839905,13.8339905 L14.0839905,3.37977566 C14.0839905,3.24170447 13.9720617,3.12977566 13.8339905,3.12977566 L13.8339905,3.12977566 Z" id="Combined-Shape"></path>
                        </g>
                        <g id="Group" transform="translate(0.005746, 7.005746)">
                            <path d="M16.2748334,-1.42108547e-14 C16.7933916,-1.25748458e-14 17.2137661,0.420374488 17.2137661,0.938932698 L17.2137661,16.2748334 C17.2137661,16.7933916 16.7933916,17.2137661 16.2748334,17.2137661 L0.938932698,17.2137661 C0.420374488,17.2137661 -1.19637524e-14,16.7933916 -1.42108547e-14,16.2748334 L-1.42108547e-14,0.938932698 C-1.43853821e-14,0.420374488 0.420374488,-1.40045748e-14 0.938932698,-1.42108547e-14 L16.2748334,-1.42108547e-14 Z M13.8339905,3.12977566 L3.37977566,3.12977566 C3.24170447,3.12977566 3.12977566,3.24170447 3.12977566,3.37977566 L3.12977566,3.37977566 L3.12977566,13.8339905 C3.12977566,13.9720617 3.24170447,14.0839905 3.37977566,14.0839905 L3.37977566,14.0839905 L13.8339905,14.0839905 C13.9720617,14.0839905 14.0839905,13.9720617 14.0839905,13.8339905 L14.0839905,13.8339905 L14.0839905,3.37977566 C14.0839905,3.24170447 13.9720617,3.12977566 13.8339905,3.12977566 L13.8339905,3.12977566 Z" id="Combined-Shape"></path>
                        </g>
                    </g>
                </g>
            </g>
        </g>
    </g>
</svg>